<svg width="485" height="114" viewBox="0 0 485 114" fill="none" xmlns="http://www.w3.org/2000/svg">
<g filter="url(#filter0_d_0_1)">
<path d="M389.31 101.49L382.735 49.6229L399.063 47.5531L405.638 99.4203L389.31 101.49ZM422.5 97.2829L418.658 66.9736C418.325 64.3411 417.249 62.4171 415.433 61.2016C413.678 59.9059 411.627 59.4068 409.279 59.7045C407.642 59.9119 406.229 60.4525 405.038 61.3263C403.839 62.129 402.924 63.1847 402.295 64.4934C401.737 65.7931 401.571 67.3324 401.796 69.1111L395.148 67.1344C394.625 63.0078 395.068 59.3732 396.477 56.2307C397.876 53.017 400.007 50.4336 402.868 48.4805C405.72 46.4563 409.067 45.2007 412.909 44.7137C416.537 44.2537 419.878 44.6616 422.932 45.9373C426.056 47.2039 428.657 49.1876 430.735 51.8882C432.812 54.5888 434.108 57.9669 434.622 62.0223L438.829 95.2131L422.5 97.2829ZM455.691 93.0756L451.849 62.7664C451.515 60.1339 450.44 58.2099 448.623 56.9944C446.869 55.6987 444.817 55.1996 442.469 55.4972C440.833 55.7047 439.42 56.2453 438.229 57.1191C437.03 57.9218 436.115 58.9775 435.486 60.2862C434.928 61.5859 434.761 63.1251 434.987 64.9038L425.433 64.8136C425.016 60.3844 425.57 56.4828 427.094 53.1087C428.68 49.6545 430.966 46.8707 433.951 44.7573C436.999 42.5638 440.55 41.2099 444.605 40.6959C448.59 40.1908 452.22 40.5982 455.496 41.9179C458.834 43.1575 461.59 45.2298 463.766 48.1349C466.004 50.9598 467.397 54.5423 467.948 58.8823L472.02 91.0058L455.691 93.0756Z" fill="#33A853"/>
</g>
<g filter="url(#filter1_d_0_1)">
<path d="M336.508 91.6711L343.443 39.8508L359.757 42.0338L352.822 93.8541L336.508 91.6711ZM352.609 33.8055C350.05 33.463 348.032 32.3247 346.554 30.3903C345.157 28.3945 344.625 26.1525 344.958 23.6646C345.3 21.1056 346.403 19.0824 348.266 17.5952C350.201 16.1175 352.447 15.5498 355.006 15.8923C357.565 16.2347 359.548 17.3684 360.955 19.2932C362.361 21.218 362.893 23.4599 362.551 26.0189C362.218 28.5068 361.115 30.53 359.243 32.0883C357.379 33.5755 355.168 34.1479 352.609 33.8055Z" fill="#EA4336"/>
</g>
<g filter="url(#filter2_d_0_1)">
<path d="M299.422 92.9216C296.364 93.3201 293.29 93.3229 290.202 92.9299C287.184 92.5276 284.302 91.7821 281.557 90.6935C278.873 89.5244 276.517 88.0957 274.489 86.4073L282.546 75.8104C284.494 77.437 286.711 78.6307 289.197 79.3916C291.673 80.0814 294.298 80.2455 297.072 79.884C298.992 79.6338 300.413 79.1593 301.334 78.4606C302.327 77.7527 302.758 76.9009 302.629 75.9053C302.462 74.6252 301.697 73.7485 300.333 73.2753C299.031 72.7217 297.388 72.3211 295.403 72.0736C293.409 71.7549 291.303 71.4145 289.086 71.0525C286.869 70.6905 284.727 70.0657 282.658 69.1781C280.59 68.2905 278.821 66.9298 277.353 65.0961C275.875 63.1913 274.932 60.6744 274.524 57.5453C274.089 54.2028 274.567 51.2114 275.959 48.571C277.341 45.8594 279.504 43.5886 282.448 41.7585C285.392 39.9284 288.961 38.7399 293.157 38.193C297.566 37.6184 301.722 37.8724 305.624 38.955C309.588 39.9572 312.938 41.7988 315.674 44.4799L307.617 55.0767C305.731 53.3698 303.706 52.2595 301.541 51.746C299.448 51.2233 297.441 51.087 295.521 51.3373C293.672 51.5782 292.322 52.0434 291.472 52.7329C290.612 53.3512 290.248 54.1581 290.377 55.1538C290.516 56.2205 291.232 56.9951 292.524 57.4776C293.817 57.9601 295.455 58.3251 297.441 58.5727C299.426 58.8202 301.531 59.1606 303.757 59.5937C305.983 60.0268 308.135 60.7227 310.213 61.6815C312.291 62.6402 314.069 64.072 315.546 65.9768C317.015 67.8105 317.962 70.363 318.389 73.6343C319.047 78.6836 317.65 82.9519 314.199 86.4393C310.819 89.9174 305.893 92.0782 299.422 92.9216Z" fill="#33A853"/>
</g>
<g filter="url(#filter3_d_0_1)">
<path d="M212.693 80.0598L222.939 28.7912L239.079 32.0166L228.833 83.2852L212.693 80.0598ZM234.462 55.1191L228.765 48.4954C231.295 42.7846 234.473 38.5927 238.299 35.9198C242.124 33.2468 246.85 32.4725 252.476 33.5968C254.937 34.0887 257.005 34.9041 258.679 36.0431C260.437 37.1258 261.865 38.5813 262.962 40.4096L250.938 50.6227C250.39 49.7086 249.63 48.9351 248.66 48.3024C247.689 47.6696 246.536 47.2197 245.199 46.9527C242.527 46.4186 240.213 46.8339 238.258 48.1985C236.388 49.5069 235.123 51.8137 234.462 55.1191Z" fill="#4285F4"/>
</g>
<g filter="url(#filter4_d_0_1)">
<path d="M174.238 93.0607C169.467 93.6292 165.054 92.9632 161 91.0628C157.017 89.154 153.68 86.3015 150.988 82.5053C148.368 78.7006 146.748 74.199 146.129 69.0003C145.51 63.8017 146.026 59.0455 147.679 54.7318C149.403 50.4096 151.977 46.8528 155.4 44.0616C158.894 41.2618 163.027 39.5777 167.798 39.0092C171.288 38.5935 174.502 38.8967 177.441 39.9188C180.45 40.9325 182.99 42.5439 185.058 44.7531C187.119 46.8911 188.438 49.4784 189.017 52.5152L191.689 74.9476C191.841 78.0352 191.17 80.8958 189.678 83.5292C188.249 86.0829 186.191 88.2059 183.504 89.8984C180.816 91.5908 177.728 92.6449 174.238 93.0607ZM175.793 77.9248C179.283 77.5091 181.96 76.0345 183.825 73.5011C185.682 70.8965 186.398 67.8139 185.973 64.2532C185.685 61.8319 184.932 59.7549 183.714 58.0221C182.568 56.2808 181.045 55.0178 179.146 54.2329C177.31 53.3683 175.252 53.0718 172.973 53.3433C170.694 53.6148 168.728 54.3907 167.075 55.671C165.485 56.8717 164.266 58.4614 163.418 60.4402C162.642 62.4106 162.398 64.6064 162.686 67.0277C162.966 69.3777 163.715 71.4192 164.933 73.1519C166.15 74.8847 167.713 76.1791 169.621 77.0352C171.528 77.8913 173.586 78.1879 175.793 77.9248ZM188.425 90.2871L186.758 76.2935L187.713 63.3959L183.754 51.0837L182.24 38.372L198.263 36.463L204.448 88.378L188.425 90.2871Z" fill="#FABC02"/>
</g>
<g filter="url(#filter5_d_0_1)">
<path d="M118.326 77.9248L112.527 48.6959C111.997 46.0227 110.727 44.0446 108.717 42.7617C106.765 41.3944 104.522 40.962 101.989 41.4644C100.231 41.8134 98.7598 42.5073 97.5768 43.5463C96.3798 44.515 95.5339 45.7795 95.0393 47.34C94.5307 48.8301 94.4508 50.4545 94.7998 52.2132L87.9669 50.3883C87.1714 46.3786 87.3176 42.6938 88.4058 39.3339C89.4939 35.974 91.3899 33.185 94.0938 30.9669C96.7837 28.6784 100.098 27.1433 104.038 26.3617C108.048 25.5661 111.732 25.7124 115.092 26.8006C118.438 27.8184 121.213 29.644 123.417 32.2776C125.678 34.8268 127.192 38.0359 127.96 41.905L134.471 74.7216L118.326 77.9248ZM84.4546 84.6454L69.2549 8.03809L85.3994 4.83484L100.599 81.4421L84.4546 84.6454Z" fill="#EA4336"/>
</g>
<g filter="url(#filter6_d_0_1)">
<path d="M37.7874 92.1196C32.4703 92.9322 27.4707 92.4993 22.7886 90.8207C18.1065 89.1421 14.2105 86.4365 11.1008 82.7039C7.99101 78.9712 6.04607 74.5527 5.26593 69.4483C4.47495 64.273 5.01132 59.4752 6.87501 55.055C8.79877 50.5531 11.7442 46.8019 15.7112 43.8014C19.6782 40.8009 24.3556 38.889 29.7436 38.0655C33.7846 37.4479 37.5795 37.5934 41.1282 38.502C44.737 39.3289 48.0643 40.9244 51.1099 43.2883L42.2812 55.3026C40.8702 54.1398 39.3006 53.364 37.5725 52.9752C35.9153 52.5755 34.0587 52.5328 32.0028 52.847C29.6633 53.2045 27.6531 54.0559 25.9724 55.401C24.3517 56.6644 23.1506 58.299 22.3689 60.3048C21.6472 62.2289 21.4706 64.3961 21.839 66.8065C22.2074 69.2169 23.0287 71.2679 24.3029 72.9595C25.6481 74.6402 27.3235 75.8714 29.3293 76.6531C31.3351 77.4348 33.4723 77.6523 35.7409 77.3056C37.8678 76.9805 39.6923 76.3389 41.2145 75.3808C42.7968 74.3409 44.0876 73.0553 45.087 71.5241L56.9949 80.3691C54.7343 83.6166 52.0163 86.2448 48.8409 88.2537C45.6547 90.1917 41.9702 91.4803 37.7874 92.1196Z" fill="#4285F4"/>
</g>
<defs>
<filter id="filter0_d_0_1" x="378.735" y="36.4863" width="105.284" height="77.0039" filterUnits="userSpaceOnUse" color-interpolation-filters="sRGB">
<feFlood flood-opacity="0" result="BackgroundImageFix"/>
<feColorMatrix in="SourceAlpha" type="matrix" values="0 0 0 0 0 0 0 0 0 0 0 0 0 0 0 0 0 0 127 0" result="hardAlpha"/>
<feOffset dx="4" dy="4"/>
<feGaussianBlur stdDeviation="4"/>
<feComposite in2="hardAlpha" operator="out"/>
<feColorMatrix type="matrix" values="0 0 0 0 0 0 0 0 0 0 0 0 0 0 0 0 0 0 0.5 0"/>
<feBlend mode="normal" in2="BackgroundImageFix" result="effect1_dropShadow_0_1"/>
<feBlend mode="normal" in="SourceGraphic" in2="effect1_dropShadow_0_1" result="shape"/>
</filter>
<filter id="filter1_d_0_1" x="332.509" y="11.7959" width="42.1426" height="94.0586" filterUnits="userSpaceOnUse" color-interpolation-filters="sRGB">
<feFlood flood-opacity="0" result="BackgroundImageFix"/>
<feColorMatrix in="SourceAlpha" type="matrix" values="0 0 0 0 0 0 0 0 0 0 0 0 0 0 0 0 0 0 127 0" result="hardAlpha"/>
<feOffset dx="4" dy="4"/>
<feGaussianBlur stdDeviation="4"/>
<feComposite in2="hardAlpha" operator="out"/>
<feColorMatrix type="matrix" values="0 0 0 0 0 0 0 0 0 0 0 0 0 0 0 0 0 0 0.5 0"/>
<feBlend mode="normal" in2="BackgroundImageFix" result="effect1_dropShadow_0_1"/>
<feBlend mode="normal" in="SourceGraphic" in2="effect1_dropShadow_0_1" result="shape"/>
</filter>
<filter id="filter2_d_0_1" x="270.369" y="33.8945" width="60.1777" height="71.3281" filterUnits="userSpaceOnUse" color-interpolation-filters="sRGB">
<feFlood flood-opacity="0" result="BackgroundImageFix"/>
<feColorMatrix in="SourceAlpha" type="matrix" values="0 0 0 0 0 0 0 0 0 0 0 0 0 0 0 0 0 0 127 0" result="hardAlpha"/>
<feOffset dx="4" dy="4"/>
<feGaussianBlur stdDeviation="4"/>
<feComposite in2="hardAlpha" operator="out"/>
<feColorMatrix type="matrix" values="0 0 0 0 0 0 0 0 0 0 0 0 0 0 0 0 0 0 0.5 0"/>
<feBlend mode="normal" in2="BackgroundImageFix" result="effect1_dropShadow_0_1"/>
<feBlend mode="normal" in="SourceGraphic" in2="effect1_dropShadow_0_1" result="shape"/>
</filter>
<filter id="filter3_d_0_1" x="208.693" y="24.791" width="66.2695" height="70.4941" filterUnits="userSpaceOnUse" color-interpolation-filters="sRGB">
<feFlood flood-opacity="0" result="BackgroundImageFix"/>
<feColorMatrix in="SourceAlpha" type="matrix" values="0 0 0 0 0 0 0 0 0 0 0 0 0 0 0 0 0 0 127 0" result="hardAlpha"/>
<feOffset dx="4" dy="4"/>
<feGaussianBlur stdDeviation="4"/>
<feComposite in2="hardAlpha" operator="out"/>
<feColorMatrix type="matrix" values="0 0 0 0 0 0 0 0 0 0 0 0 0 0 0 0 0 0 0.5 0"/>
<feBlend mode="normal" in2="BackgroundImageFix" result="effect1_dropShadow_0_1"/>
<feBlend mode="normal" in="SourceGraphic" in2="effect1_dropShadow_0_1" result="shape"/>
</filter>
<filter id="filter4_d_0_1" x="141.876" y="32.4629" width="74.5723" height="72.7939" filterUnits="userSpaceOnUse" color-interpolation-filters="sRGB">
<feFlood flood-opacity="0" result="BackgroundImageFix"/>
<feColorMatrix in="SourceAlpha" type="matrix" values="0 0 0 0 0 0 0 0 0 0 0 0 0 0 0 0 0 0 127 0" result="hardAlpha"/>
<feOffset dx="4" dy="4"/>
<feGaussianBlur stdDeviation="4"/>
<feComposite in2="hardAlpha" operator="out"/>
<feColorMatrix type="matrix" values="0 0 0 0 0 0 0 0 0 0 0 0 0 0 0 0 0 0 0.5 0"/>
<feBlend mode="normal" in2="BackgroundImageFix" result="effect1_dropShadow_0_1"/>
<feBlend mode="normal" in="SourceGraphic" in2="effect1_dropShadow_0_1" result="shape"/>
</filter>
<filter id="filter5_d_0_1" x="65.2549" y="0.834961" width="81.2158" height="95.8105" filterUnits="userSpaceOnUse" color-interpolation-filters="sRGB">
<feFlood flood-opacity="0" result="BackgroundImageFix"/>
<feColorMatrix in="SourceAlpha" type="matrix" values="0 0 0 0 0 0 0 0 0 0 0 0 0 0 0 0 0 0 127 0" result="hardAlpha"/>
<feOffset dx="4" dy="4"/>
<feGaussianBlur stdDeviation="4"/>
<feComposite in2="hardAlpha" operator="out"/>
<feColorMatrix type="matrix" values="0 0 0 0 0 0 0 0 0 0 0 0 0 0 0 0 0 0 0.5 0"/>
<feBlend mode="normal" in2="BackgroundImageFix" result="effect1_dropShadow_0_1"/>
<feBlend mode="normal" in="SourceGraphic" in2="effect1_dropShadow_0_1" result="shape"/>
</filter>
<filter id="filter6_d_0_1" x="0.912109" y="33.6904" width="68.083" height="70.8271" filterUnits="userSpaceOnUse" color-interpolation-filters="sRGB">
<feFlood flood-opacity="0" result="BackgroundImageFix"/>
<feColorMatrix in="SourceAlpha" type="matrix" values="0 0 0 0 0 0 0 0 0 0 0 0 0 0 0 0 0 0 127 0" result="hardAlpha"/>
<feOffset dx="4" dy="4"/>
<feGaussianBlur stdDeviation="4"/>
<feComposite in2="hardAlpha" operator="out"/>
<feColorMatrix type="matrix" values="0 0 0 0 0 0 0 0 0 0 0 0 0 0 0 0 0 0 0.5 0"/>
<feBlend mode="normal" in2="BackgroundImageFix" result="effect1_dropShadow_0_1"/>
<feBlend mode="normal" in="SourceGraphic" in2="effect1_dropShadow_0_1" result="shape"/>
</filter>
</defs>
</svg>
