<svg viewBox="-98.53225806451616 168.17499999999995 793.0645161290322 624.65" xmlns="http://www.w3.org/2000/svg" overflow="visible" xmlns:xlink="http://www.w3.org/1999/xlink" width="793.0645161290322px" height="624.65px"><g id="Master/Character/Sitting On Chair" stroke="none" stroke-width="1" fill="none" fill-rule="evenodd"><g id="Head" transform="translate(66.000000, 125.000000) scale(1 1)"><g id="Head/Braids" stroke="none" stroke-width="1" fill="none" fill-rule="evenodd"><path d="M132.564158,54.6777031 C155.473343,54.6777031 171.213204,63.8953385 179.783741,82.3306094 L178.829019,93.685776 L178.829019,97.425145 L188.000193,122.406477 L185.554053,147.783329 L181.376158,153.253048 C181.192876,153.770314 181.003564,154.288153 180.808221,154.806564 C179.015011,159.565486 176.362158,163.549907 172.849662,166.759825 L176.83815,174.069571 L178.829019,180.876492 L182.126651,187.315702 L185.554053,195.525022 C187.950142,197.561524 187.474073,201.342156 184.125847,206.866919 C182.097358,207.845652 178.687713,205.939853 173.89691,201.149523 L166.487247,194.41394 L169.844218,189.902206 L161.193388,182.052733 L158.990123,174.295056 C151.500962,176.533866 142.303451,177.233527 131.397591,176.394039 L130.484815,176.320518 L132.077401,191.665688 C134.51512,194.460131 136.017585,198.283443 136.017585,202.5 C136.017585,211.060414 129.824916,218 122.185872,218 C114.653359,218 108.527161,211.252618 108.357759,202.857181 L106.670384,202.741239 L106.272869,198.088067 C105.162615,185.361618 104.075782,175.175598 103.012369,167.530007 L100.740209,167.314234 L76.7324972,161.13577 L74.0752549,161.13577 L70.9062464,171.6836 L70.9062464,177.734707 L66.9203793,185.584427 L68.3097844,189.902206 L63.69148,195.525022 L54.740638,194.41394 L53.2196713,188.318638 L54.740638,175.582282 L55.6033686,164.524827 L57.4985167,161.13577 L54.740638,149.752157 L57.4985167,142.413849 C45.8320121,121.391986 44.9127192,105.149295 54.740638,93.685776 C69.4825163,76.4904976 80.0040997,80.7386953 80.0040997,80.7386953 L80.8928017,79.3824452 C88.1647507,68.4080703 99.5749318,54.6777031 132.564158,54.6777031 Z" id="Path" fill="#ffffff"/><path d="M183.961266,203.430944 C186.709237,207.823745 190.814664,209.222354 195.357883,209.842453 C197.389558,210.119674 197.597935,213.119076 195.635385,213.730838 C195.314805,213.830887 194.971183,213.897587 194.616542,213.94657 C190.357838,214.541656 182.413466,210.051932 181.104097,206.154168 C180.817579,205.298536 181.163204,204.003102 181.646078,203.182904 C181.834419,202.862954 183.674748,202.973425 183.961266,203.430944 Z M162.238393,61.3472448 C167.607963,64.2545113 172.133744,68.0515534 175.737932,72.7393708 C180.728345,79.2267342 182.003892,86.3819291 180.261521,94.0299997 C180.191619,94.3351502 179.767948,95.4642762 179.451411,96.2818788 C185.780988,104.780439 189.486341,114.212498 189.891781,124.716228 C190.180345,132.193673 190.003695,139.603962 187.959606,146.940077 C185.420475,156.061526 180.240257,162.544117 173.338347,167.230033 C173.562606,167.317829 173.966461,167.519875 174.770804,168.038966 C178.281713,170.248328 180.000833,176.128387 179.248108,179.220701 C182.106077,182.102694 186.102895,187.503578 185.000923,191.968931 C188.632225,192.483821 194.34274,193.480861 198.94586,194.132658 C200.984943,194.421353 201.24742,197.080128 199.270161,197.622796 C198.360167,197.8728 197.295071,197.784505 196.252753,197.730933 C193.972886,197.612875 190.260237,197.454142 186.931544,197.278544 C189.643089,200.817294 194.204994,202.248865 197.246264,203.732025 C198.276651,204.234018 199.483831,204.509816 200.372133,205.159629 C201.551113,206.02373 200.967589,207.938445 199.470816,207.990033 C197.971873,208.042614 196.208284,207.901738 194.98375,207.215219 C191.656141,205.348124 188.508579,203.201262 185.379455,201.054401 C183.849059,200.00478 182.518232,198.711108 180.758981,197.245805 C181.085451,192.760611 180.191726,186.88452 176.957394,182.252498 C175.743706,183.83685 174.053871,185.168222 174.053871,185.168222 C172.090712,186.590865 171.92585,185.214849 171.45838,184.205904 C171.25881,183.773357 172.639529,180.830847 175.047381,178.823869 C175.047381,178.823869 176.890148,175.875407 169.626459,169.931855 C169.57438,169.819507 169.511396,169.705937 169.445698,169.591953 C166.699394,171.083045 163.743273,172.352649 160.623294,173.442641 C161.827758,176.448535 162.836274,179.500433 164.566867,182.150924 C166.636491,185.32098 170.12387,188.776698 174.287858,190.314115 C174.756858,192.122317 172.842134,192.858293 170.1314,193.483179 C172.167677,197.887137 174.988131,199.736997 177.902169,201.31409 C179.509247,202.183971 179.319926,204.444471 177.543965,204.967193 C176.808195,205.184415 174.748252,204.266924 174.114672,203.861244 C169.228898,200.729872 165.716778,200.008773 165.220885,193.897786 C165.159571,193.153874 165.086424,191.077865 166.330995,189.6317 C166.330995,189.6317 161.176299,186.653078 160.381366,185.797083 C157.50175,182.579417 157.546929,181.076715 157.082231,176.722352 C157.004411,175.994476 156.9488,175.26073 157.073097,174.587058 C155.751662,174.98031 154.40492,175.346018 153.036725,175.687146 C147.462933,177.076387 141.331761,176.597269 134.988829,177.003216 C135.096355,178.173948 135.176451,179.753633 135.395892,181.315277 C136.304376,187.782365 137.258943,194.244441 138.19376,200.708522 C138.234356,200.996193 138.261786,201.284867 138.274953,201.574543 C138.347368,203.194322 138.360535,205.033613 136.034464,205 C135.146827,204.986503 133.742406,203.177282 133.519674,202.034616 C132.612287,197.380758 131.73233,190.905652 131.237492,186.19867 C130.334493,182.328641 130.819457,182.004886 129.3119,180.557509 C128.788534,180.055337 127.365461,178.522762 126.966079,177.933386 C124.105671,173.703518 123.259727,173.24144 121.062029,168.846185 C121.009363,168.628678 120.992905,168.403152 121.001683,168.172614 C121.068612,166.519758 122.721,165.341008 124.498469,165.655742 C125.044877,165.751966 125.527646,165.910336 125.872168,166.204021 C135.163285,174.137531 145.856627,173.70853 156.635551,170.139202 C172.154394,165.000213 182.65024,155.695504 184.52536,139.804429 C185.98464,127.4476 185.517232,115.3604 178.771626,104.227426 C176.499318,100.475673 173.999889,97.3132949 170.246357,93.8371849 C169.735298,93.2311889 169.160975,91.8480961 168.383092,91.0798913 C168.247457,90.9459433 167.22618,90.1250189 167.181869,90.0089369 C167.03967,89.6368204 166.905954,89.5643908 166.881314,89.5119716 C163.282414,93.38074 158.571483,95.7912263 152.737313,96.5824968 C151.320352,96.7748482 149.85095,96.2088143 148.681984,96.6906945 C148.681984,96.6906945 146.647765,98.701367 145.64595,99.6901731 C143.07204,102.229812 139.397991,103.637383 135.61797,103.71252 C134.419507,103.736564 133.147847,102.974171 132.193009,103.325814 C132.193009,103.325814 130.599064,105.142131 129.814655,106.110901 C125.489481,111.451656 119.720033,114.203682 112.251761,113.153765 C108.870352,116.039208 106.889579,120.783978 101.878834,121.803295 C101.491598,122.189859 101.008318,122.519068 100.570552,122.646964 C97.9548196,123.407739 90.1515104,124.956889 87.6630535,125.937176 C85.5399653,126.773126 83.5562219,128.238545 81.9652772,129.80921 C76.9367949,134.777802 78.1097052,140.552274 85.0330574,142.870683 C89.4317451,144.344121 94.3186882,144.723005 99.0322732,145.257251 C104.495248,145.875694 105.438843,146.301688 105.9655,150.958553 C107.665068,165.994633 109.245041,181.041738 110.808555,196.089847 C111.014829,198.073475 111.019218,200.105215 110.782222,202.080824 C110.704321,202.733346 109.606021,203.709624 108.907102,203.759741 C108.157712,203.812865 106.904706,203.101205 106.630405,202.453694 C106.146539,201.311028 106.222246,199.96589 106.089484,198.703945 C105.046934,188.791646 104.008016,178.879346 102.96309,168.96758 C94.4972906,167.91768 83.1451071,167.152076 75.772964,162.76266 C75.772964,162.76266 74.2881134,169.902859 72.4076678,172.975084 C73.2733741,174.669656 73.4530903,177.890843 72.1238476,179.33048 C70.1677898,182.280736 68.8056722,183.620398 68.8056722,183.620398 C69.1136006,185.306973 71.2921121,192.042273 66.3521071,196.832065 C64.2579746,197.60687 64.2481121,201.053 64.2031831,204.095233 C64.1724998,206.171709 63.2476186,208.351159 62.1989086,210.243682 C62.0104257,210.583596 61.5162061,210.780546 60.9200742,210.932508 C59.6982229,211.24243 58.4818508,210.44863 58.3854177,209.295921 C58.363501,209.034986 58.3624052,208.776052 58.3974718,208.521116 C58.7108794,206.212698 59.3365987,203.939272 59.6280897,201.630854 C59.6993187,201.061998 60.0609429,198.955529 59.5327524,198.054757 C57.39917,200.564123 54.4590561,204.309179 52.4646442,206.490628 C51.5846921,207.452386 50.5403654,208.448135 49.3327599,208.949008 C49.1311271,209.032987 48.9086734,209.072977 48.6708781,209.084974 C47.1487692,209.159955 45.9115763,207.789301 46.3290879,206.451638 C46.3893585,206.258687 46.4759292,206.084731 46.6030455,205.938768 C48.5240368,203.720327 52.977493,199.713338 54.4316603,196.756084 C51.7622167,198.433661 46.6348246,200.10424 43.8141563,200.50014 C41.5885241,200.813061 40.6976137,200.603114 40.1310692,199.179473 C39.6894494,198.069753 40.403931,196.846061 41.6718072,196.609121 C45.9313013,195.815322 50.4011949,195.352438 53.6645788,191.848322 C52.0175452,189.046029 51.1134849,186.667629 51.0345851,184.305225 C50.9688352,182.371713 51.6920835,180.497186 52.8394183,178.870596 C53.0465303,178.575671 53.1944674,178.316736 53.1900841,178.174772 C53.1900841,178.174772 52.3134195,175.857356 52.1556199,175.227515 C51.1080057,171.069564 52.271778,167.380495 54.4765894,163.739414 C54.8042428,163.19855 55.8376112,162.083831 56.0041775,161.420998 C56.0041775,161.420998 55.508862,160.088335 55.3357207,159.293535 C54.2826274,154.463754 52.9950262,150.628721 55.0902546,144.154354 C55.0902546,144.154354 53.3873337,141.099125 52.4186193,139.388557 C44.152768,124.796238 43.9642851,110.087949 52.0109702,95.463638 C55.4551663,89.2052168 60.3842129,83.8615649 67.7043623,81.0532734 C70.9480213,79.8095871 74.5270045,79.2937173 78.5103492,78.3109652 C85.9137817,64.6264175 99.4505788,57.6711722 115.657915,54.4399873 C132.096472,51.1628141 147.719731,53.4852282 162.238393,61.3472448 Z M90.4592876,70.510933 C87.3537033,73.1572654 84.9790381,76.7333632 83.0536634,80.2394787 C81.7956498,82.5309006 80.7787188,83.7395957 77.8517549,83.4456698 C71.3107412,82.7868361 66.3115614,85.6981016 62.0783673,89.7890695 C53.3643212,98.2119446 50.1743579,108.439364 50.7430941,119.818494 C51.319501,131.332589 57.7531233,140.428294 65.2376473,149.096108 C66.210745,150.222823 67.1958968,151.34454 68.0922864,152.522243 C68.2577568,152.739189 68.0254407,153.21007 67.9377742,153.856907 C63.3637767,155.875397 61.3540231,150.15684 58.5366423,148.950145 C57.2775328,152.620219 58.9914121,157.524981 61.9468676,163.050587 C62.1923336,163.510471 62.5386162,163.955359 62.824628,164.418242 C63.7144425,165.856879 61.9326218,167.449478 60.3546255,166.640682 L57.8901022,164.284276 C54.6584973,170.771639 56.7307132,175.608419 58.6078713,179.778367 C58.0807767,180.582164 56.4436056,180.181266 55.7203573,179.821356 C55.7203573,179.821356 54.8864301,183.408451 56.0688315,186.044786 C57.1219248,188.392194 57.6939485,190.641627 57.5164239,191.345449 C58.3558302,192.443172 62.1978128,193.236972 63.2772061,194.146742 C64.5319323,193.501905 65.705567,191.251473 65.0984768,189.878819 C64.928623,189.495916 57.9547562,184.91907 59.7968476,184.140267 C62.267946,183.484432 65.6376255,185.574905 65.6376255,185.574905 C66.4090903,180.415207 66.9263224,178.904588 68.884572,175.046561 C63.6399261,175.553433 62.1780878,175.491449 62.8969528,173.564935 C63.7922465,172.283258 65.5346174,172.290256 66.4660735,171.690408 C67.4216379,171.075563 69.4883747,168.535204 70.0593025,167.616435 C72.6366964,163.465483 72.7068296,158.477741 71.2855371,153.488999 C70.7957008,151.770433 72.9216124,150.23482 74.5270045,151.239567 C75.2064195,151.66546 75.623931,152.402274 75.7126933,153.308045 C76.4447083,160.766164 82.7753224,161.640943 88.6928084,163.060585 C91.7677095,163.798399 99.0896731,163.701423 102.171149,164.418242 C102.288564,164.445549 102.394994,164.473475 102.491468,164.502772 L101.217902,152.482107 L101.217902,152.482107 C101.144389,151.789491 100.832784,151.118927 100.570552,150.230855 C95.8459951,149.615419 91.655776,149.304694 87.5873465,148.486786 C80.997544,147.163699 75.2712405,144.334097 74.167454,137.64449 C73.1371802,131.400923 76.9803713,127.668561 82.4140334,123.544594 C87.5647694,119.635358 93.7952476,119.562161 97.0114725,118.598555 C97.0479254,118.411718 97.2153605,118.268312 97.5837719,118.177273 C101.086404,117.311734 104.884401,115.729097 105.913125,113.692749 C107.660019,110.235434 109.921477,106.998522 111.710978,103.556235 C113.085332,100.911404 114.240096,98.1693953 115.464779,95.3813028 C115.888666,94.4155388 117.350419,94.2291985 117.987342,95.0907722 C119.172695,96.6936999 118.289962,99.0620257 114.618098,108.913019 C116.29835,108.81484 117.810358,109.022218 119.071093,108.598444 C123.602748,107.076665 126.851818,104.097223 128.446856,99.9847111 C129.898777,96.2408728 130.737811,92.2976705 131.845597,88.4416273 C132.108888,87.5269567 132.368901,86.6102823 132.655133,85.6044451 C132.964308,84.5134524 134.461022,84.091682 135.34157,84.8791203 C137.34083,86.6643811 136.238506,88.9866228 136.020007,90.8941068 C135.717387,93.5419432 134.807342,96.1326752 134.155124,98.7745006 C139.945329,99.360571 143.810565,97.3569113 145.590233,92.2696192 C146.97442,88.3123913 147.580753,84.1237406 148.480966,80.0292619 C148.860061,78.3001036 148.586938,75.73041 151.288669,76.0229443 C154.058135,76.3234932 153.153552,78.8661374 152.918667,80.5341842 C152.388808,84.2890425 151.602214,88.0128441 150.810158,92.3557766 C155.36257,91.9800904 159.162256,91.028352 162.024584,87.9928075 C163.708113,86.2075467 165.107595,84.1958723 166.812974,82.4296463 C167.259803,81.9668009 167.834454,81.6081458 168.428769,81.2735346 C169.31478,80.7736215 170.535093,81.100218 170.851915,82.0088777 C171.354462,83.4515127 170.477191,84.6106299 169.726649,85.8008038 C169.618966,85.9715825 169.50982,86.140496 169.39921,86.3075367 C171.094972,87.5075705 173.790199,89.9387388 175.743544,91.9059107 C178.5694,81.7176993 172.998854,74.262195 164.686479,68.116537 C143.191759,52.2235465 109.794125,54.03309 90.4592876,70.510933 Z" id="Stroke" fill="#1a1a1a"/></g></g><g id="Bottom/Sitting On Chair" transform="translate(89.000000, 467.000000) scale(1 1)"><g id="Bottom/Sitting On Chair/Pants" stroke="none" stroke-width="1" fill="none" fill-rule="evenodd"><path d="M36.6730447,55.154249 L151.661599,39.3782128 C254.829732,13.1260709 311.093899,-8.8817842e-16 320.454101,-8.8817842e-16 C334.494404,-8.8817842e-16 414.78629,-11.6363731 423.108715,27.185 C428.089158,44.6430602 418.471565,73.5689412 394.255935,113.962643 L479.245292,190.625 L483.788328,186.970512 L498.313727,194.008191 L505.012994,201.15767 L501.635882,208.690867 L529.853482,221.117821 C547.003859,194.805558 562.201634,182.207856 575.446805,183.324714 C582.654531,184.441571 589.277117,194.836333 595.314562,214.509 L526.7551,280.988146 L476.5511,239.113227 L471.094356,241.52522 L353.594105,175.932687 L326.80014,213.740227 L328.91686,219.495618 L317.617428,247.089809 L306.969006,249.267427 L302.37659,256.68693 L298,270.415 C340.741768,272.61765 366.114061,276.142032 374.116879,280.988146 C382.119697,285.83426 383.661834,292.715925 378.743291,301.633142 L361.0001,322.683648 L236.891608,311.641 C246.160897,273.924594 253.598412,252.40753 259.204153,247.089809 C264.809894,241.772088 266.132107,239.917225 263.170791,241.52522 L244.265541,236.728837 L241.9151,231.827664 L255.31009,203.193746 L263.170791,203.193746 L298,147.571635 L290.5076,147.571635 L234.612037,115.236967 C153.669883,150.335039 97.6409994,154.44509 66.5253869,127.567117 C53.5819186,119.347017 43.6311379,95.2093943 36.6730447,55.154249 Z" id="Fill" fill="#ffffff"/><path d="M369.5821,-3.75 C381.1121,-3.244 392.3001,-0.898 402.7721,4.073 C406.5141,5.849 410.2141,7.99 413.4031,10.61 C425.6931,20.711 428.6191,33.903 425.3291,48.941 C422.8281,60.368 418.6911,71.237 413.5331,81.678 C408.9501,90.957 403.8571,99.983 398.9861,109.12 C398.1421,110.701 397.2851,112.276 396.2101,114.273 C423.1561,139.339 451.1741,162.966 478.9731,187.213 C484.0641,182.722 488.5771,184.683 492.8821,188.036 C496.0331,190.491 499.1581,192.997 502.1211,195.672 C506.5531,199.672 506.6531,200.668 504.0341,206.002 C503.8031,206.474 503.9471,206.185 503.6261,207.044 C505.0271,207.893 506.2611,208.28 507.7221,209.049 C514.7431,212.744 523.4071,216.469 523.4071,216.469 C525.9461,217.519 527.6681,218.221 529.0381,218.232 C529.0381,218.232 530.4061,217.372 532.5871,215.248 C536.5071,211.432 539.0501,207.051 542.6171,202.902 C546.7111,198.141 550.8451,193.347 555.5531,189.249 C558.8671,186.365 563.1341,184.182 567.3411,182.807 C574.9471,180.32 582.3471,183.09 587.0061,189.639 C592.0881,196.781 593.8421,205.175 595.2301,213.628 C595.6491,216.177 594.4781,218.028 592.4071,219.654 C576.9151,231.821 563.4991,246.179 549.7851,260.227 C543.3141,266.855 536.7221,273.374 530.0261,279.776 C526.6571,282.996 525.6871,283.083 522.0721,280.174 C514.0041,273.681 506.1431,266.934 498.1831,260.307 C491.7561,254.958 485.2861,249.661 478.8881,244.28 C478.1101,243.627 475.4401,241.171 475.4401,241.171 C475.4401,241.171 474.7281,242.406 473.5351,242.56 C471.1521,242.869 468.4971,242.274 466.1631,241.48 C463.4391,240.553 460.8631,239.106 458.3431,237.672 C425.0331,218.712 391.7461,199.712 358.4481,180.732 C357.0441,179.932 355.5851,179.228 353.5981,178.19 C345.3061,190.002 337.1021,201.689 328.5991,213.802 C333.8141,217.543 332.1681,222.35 329.7971,227.061 C326.7771,233.061 323.4681,238.916 320.4361,244.91 C319.3761,247.004 317.8891,248.978 315.7681,250.082 C314.2851,250.853 312.5731,251.022 310.9271,250.998 C310.4251,250.99 306.4041,250.369 306.2501,250.86 C304.5051,256.46 302.3661,263.298 300.2221,270.178 C302.2741,270.484 303.8991,270.236 305.4111,270.296 C317.5641,270.772 329.6101,271.55 341.7421,272.32 C352.0931,272.977 362.2491,274.992 372.0451,278.604 C384.6971,283.27 387.2421,289.974 380.7271,301.681 C376.2441,309.733 369.6661,316.072 363.3541,322.577 C362.1121,323.856 359.3011,324.151 357.2651,324.033 C345.3001,323.342 333.3351,322.565 321.4001,321.491 C305.1201,320.025 288.8631,318.311 272.6051,316.619 C261.7671,315.49 250.9371,314.276 240.1181,312.977 C234.9271,312.353 233.9821,310.865 235.0491,305.679 C238.2131,290.312 243.2811,275.585 249.9891,261.414 C252.8591,255.351 255.7711,249.309 258.9751,242.607 C255.7381,241.728 252.8511,240.919 249.9501,240.16 C239.6501,237.468 238.3221,235.364 242.2361,225.268 C244.8521,218.519 248.4701,212.166 251.5031,205.572 C253.1871,201.913 255.7291,200.341 259.7371,201.267 C260.4061,201.421 261.1561,201.218 261.6971,201.189 C272.4081,184.52 282.9991,168.042 293.8041,151.229 C290.6161,149.466 287.4561,147.771 284.3481,145.989 C269.0601,137.227 253.7291,128.54 238.5551,119.584 C237.0331,118.686 234.0631,117.301 234.0631,117.301 C234.0631,117.301 231.2391,118.171 229.5071,118.902 C218.9731,123.354 208.3571,127.626 197.6721,131.708 C174.2591,140.652 149.9481,145.811 124.9791,147.25 C103.4751,148.488 83.5181,143.466 66.1511,129.978 C58.5011,124.037 52.9421,116.533 48.7791,107.91 C41.5891,93.018 37.9251,77.136 35.7161,60.856 C35.4231,58.697 35.0001,56.533 35.0001,54.37 C35.0001,54.191 35.0511,54.013 35.1361,53.834 C35.7211,52.606 37.5341,52.467 38.3061,53.587 C38.4201,53.752 38.5001,53.922 38.5321,54.102 C39.4191,59.107 39.9841,64.169 40.8471,69.179 C42.7651,80.309 45.7541,91.136 50.0741,101.6 C60.2581,126.268 79.9091,138.14 105.1461,142.394 C121.7451,145.193 138.0531,142.474 154.4041,139.709 C177.8961,135.737 199.8421,127.138 221.6271,118.002 C251.9381,105.291 282.1601,92.372 312.4971,79.726 C323.3881,75.186 334.4991,71.177 345.5111,66.932 C345.9471,66.764 346.3821,66.581 346.8221,66.413 C349.5611,65.374 352.1191,68.284 350.7681,70.881 C350.4551,71.481 350.1301,72.075 349.7811,72.655 C331.5031,103.033 312.0081,132.614 291.8151,161.753 C283.8511,173.245 276.6431,185.262 269.1261,197.062 C268.1741,198.558 267.4381,200.19 266.2391,202.438 C286.0041,205.978 305.1971,209.416 324.7271,212.914 C347.8611,178.912 372.6351,145.736 393.8871,110.183 C403.3141,94.412 412.0861,78.288 417.9511,60.791 C419.7341,55.477 421.1921,49.991 422.1411,44.472 C424.7251,29.448 418.7361,17.239 405.4241,9.701 C397.7521,5.355 389.4421,2.819 380.7841,1.358 C365.7841,-1.174 350.7281,-0.458 335.6871,0.769 C297.1271,3.916 259.8261,13.179 222.7061,23.615 C199.8311,30.045 176.6031,35.218 153.5291,40.936 C151.8891,41.343 149.5941,42.809 148.9281,40.214 C148.2631,37.626 151.0071,37.778 152.6171,37.354 C175.0811,31.448 197.5341,25.498 220.0351,19.734 C237.6111,15.232 255.1601,10.57 272.8781,6.697 C304.7091,-0.26 336.8261,-5.187 369.5821,-3.75 Z M239.5631,306.107 C239.4991,306.801 239.2831,308.124 239.2211,308.818 C248.4621,309.971 257.4681,311.205 266.7251,312.216 C275.9341,313.222 285.1761,313.921 294.3941,314.853 C303.7921,315.805 313.1611,317.08 322.5731,317.84 C331.7461,318.581 349.6231,320.889 358.8711,320.433 L361.0001,318.872 C323.2791,314.418 291.0551,310.383 239.5631,306.107 Z M240.9181,299.052 C240.6901,300.471 240.3801,302.4 240.3801,302.4 C279.9941,305.222 323.3031,312.048 362.6951,316.769 L364.5691,315.131 C348.2601,312.817 329.3771,310.138 313.0541,307.934 C297.0691,305.773 281.0621,303.778 265.0561,301.778 C258.0411,300.901 251.0091,300.162 243.9781,299.425 C242.4121,299.261 240.9181,299.052 240.9181,299.052 Z M370.6621,282.508 C370.6621,282.508 368.7341,283.534 367.8521,284.027 C367.8121,284.05 367.7731,284.071 367.7341,284.094 C362.4141,287.087 357.8661,291.277 354.2731,296.212 C351.5371,299.969 348.9021,303.783 348.2741,308.883 C354.3111,309.829 359.4581,310.788 364.6481,311.36 C365.4561,311.449 367.4371,311.641 367.4371,311.641 C368.7181,310.993 369.0771,310.711 369.5811,310.19 C374.1431,305.491 377.9261,300.186 379.9931,293.843 C381.0881,290.484 380.1741,287.836 377.3631,285.73 C375.1831,284.099 373.1531,282.199 370.6621,282.508 Z M261.2771,251.003 C260.7681,251.011 259.2041,251.224 259.2041,251.224 C258.8971,251.564 258.2471,253.187 257.8921,253.894 C252.0061,265.587 246.6341,277.505 242.9811,290.12 C242.5441,291.63 242.3061,293.197 241.9151,295.018 C276.2421,299.428 310.1471,303.782 343.8291,308.109 C343.7411,306.107 345.9811,300.022 347.7471,296.713 C349.5911,293.258 352.1141,290.023 354.8981,287.253 C357.4611,284.7 360.7651,282.891 364.5691,280.161 C361.1561,279.36 358.9131,278.662 356.6331,278.251 C354.1951,277.81 349.8531,277.136 349.8531,277.136 C349.4641,277.669 348.3341,279.21 346.8821,280.728 C343.7531,283.999 340.1921,286.878 336.6561,289.725 C334.8401,291.187 332.7931,292.544 330.6291,293.357 C326.8971,294.76 324.5811,292.843 324.8271,288.855 C324.9141,287.45 325.2641,286.06 325.6261,283.854 C322.9571,286.021 320.9381,287.786 318.7851,289.371 C316.3761,291.144 311.5611,291.935 310.9641,287.936 C310.6881,286.079 311.0591,283.281 312.3731,281.845 C310.7401,283.628 308.5651,284.944 306.4961,286.156 C304.4601,287.35 302.0571,289.078 299.6041,289.019 C298.7401,288.998 297.8451,288.681 297.3151,288 C296.5201,286.979 296.6961,285.517 297.0591,284.366 C298.2391,280.635 301.1141,276.756 303.2421,273.471 C302.6411,273.211 295.1071,273.883 295.0511,272.153 C294.9801,269.938 299.6261,258.935 301.6071,250.873 C287.7251,250.873 274.4981,250.799 261.2771,251.003 Z M334.8531,275.87 C330.1321,280.098 328.5921,283.745 328.9721,288.056 C329.0491,288.933 330.0301,289.415 330.7991,288.987 C336.4941,285.819 341.0181,280.772 345.7321,276.69 C344.7111,276.941 334.8531,275.87 334.8531,275.87 Z M283.251131,274.5971 C283.2371,282.2261 276.3411,288.6951 268.7141,288.2341 C261.7491,287.8131 257.2591,280.2961 260.0381,273.3191 C262.3961,267.3991 267.1191,264.2041 273.3461,263.6021 C279.1661,263.0411 283.2641,267.7971 283.251131,274.5971 Z M322.6091,274.942 C320.4891,275.462 316.4821,278.462 315.1571,283.63 C314.9001,284.633 316.6351,285.928 318.0591,284.975 C322.2781,282.152 325.2311,278.619 328.8891,275.321 C323.9841,274.813 322.6091,274.942 322.6091,274.942 Z M263.1791,277.0781 C263.0151,281.1521 265.2911,283.9981 268.9291,284.2671 C273.9111,284.6371 279.0891,280.3681 279.6681,275.4151 C280.1281,271.4861 277.4571,267.8091 273.9341,267.5181 C269.1151,267.1201 263.3741,272.2241 263.1791,277.0781 Z M308.9791,274.262 C306.8221,275.305 304.0361,278.3 302.4321,282.016 C302.0701,282.855 303.5641,282.826 304.4371,282.558 C308.7701,281.227 310.8541,277.355 314.4681,274.623 C312.2311,274.215 308.9791,274.262 308.9791,274.262 Z M590.7791,212.225 C574.8061,227.571 539.5221,260.553 523.6011,275.953 L525.1611,277.494 C530.5581,275.303 578.1611,226.782 591.8091,214.681 C591.8091,214.681 591.1981,212.723 590.7791,212.225 Z M589.0911,206.95 C580.4941,214.509 521.3841,270.749 521.3841,270.749 C521.0491,271.121 520.0141,272.099 519.8241,272.461 L521.4081,273.882 L521.438202,273.851548 C521.724346,273.562142 523.979616,271.282548 525.1471,270.145 L589.9351,209.851 L589.0911,206.95 Z M561.0781,190.625 C559.0881,191.1 557.7051,192.494 557.7051,192.494 C557.5631,193.05 557.5821,194.199 557.7501,195.018 C558.6241,199.274 559.4211,203.598 559.6561,207.925 C560.0481,215.14 557.0671,217.777 550.2981,212.225 C550.1261,214.631 550.3181,219.051 549.8971,221.319 C549.1691,225.241 547.1421,226.275 543.3231,225.025 C542.6921,224.818 542.0271,224.714 541.1401,224.507 C540.7951,227.688 540.7651,230.61 540.0571,233.358 C539.7111,234.701 538.3831,235.131 537.0861,235.732 C536.2511,236.12 535.2341,235.734 534.3601,235.186 C533.2261,234.475 532.3331,233.43 531.7221,232.239 C530.6811,230.215 529.8771,228.617 528.8601,226.291 C528.3051,225.021 527.8911,223.027 527.8911,223.027 C521.3351,220.064 516.8791,218.412 510.3511,215.711 C501.3721,224.662 489.5841,231.867 480.7001,240.725 C492.8601,250.865 504.3961,260.487 516.2991,270.415 C537.1701,249.798 553.5221,234.331 572.8101,216.978 C564.9281,209.746 562.0301,200.598 561.0781,190.625 Z M512.9897,231.8714 C518.8907,231.9334 522.1417,235.1474 522.150717,240.9284 C522.1597,246.7234 518.5097,251.2284 513.8457,251.1794 C509.0417,251.1294 504.8077,246.0404 505.0207,240.5694 C505.2527,234.6584 507.8547,231.8174 512.9897,231.8714 Z M508.9017,241.0624 C508.9417,244.2194 511.3057,247.1524 513.8327,247.1764 C516.2487,247.2014 518.6287,244.0884 518.6087,240.9304 C518.5897,237.9594 516.4967,235.8004 513.5667,235.7344 C510.7007,235.6684 508.8607,237.7694 508.9017,241.0624 Z M255.3441,206.689 C250.8891,214.416 246.7261,222.261 244.4731,230.978 C243.8311,233.462 244.6701,234.759 247.1061,235.337 C251.1651,236.3 255.1571,237.603 259.2541,238.345 C273.7221,240.962 288.2191,243.415 302.7111,245.895 C305.1741,246.317 307.6561,246.626 310.7041,247.045 C311.6401,247.174 312.5951,247.023 313.4451,246.611 C314.3451,246.174 315.3651,245.625 315.8361,244.772 C319.9561,237.312 323.8221,229.709 327.6411,222.087 C328.7461,219.881 327.8431,218.22 325.4171,217.517 C324.3711,217.214 323.3351,216.84 322.2681,216.645 C301.3761,212.835 280.4791,209.05 259.5851,205.245 C257.8781,204.935 256.3711,204.906 255.3441,206.689 Z M480.5831,191.673 C470.6921,201.791 460.8431,211.95 450.9961,222.111 C449.8751,223.269 448.8761,224.544 447.2161,226.463 C454.3251,231.032 460.8771,235.196 468.0681,238.187 C471.9021,239.782 472.7231,239.477 475.4961,236.009 C483.6521,225.81 491.6921,215.518 499.7721,205.258 C500.1081,204.832 500.3611,204.341 500.6981,203.917 C502.0821,202.184 501.9351,200.584 500.2511,199.172 C496.9211,196.377 493.6971,193.431 490.1861,190.881 C485.3201,187.347 484.6871,187.475 480.5831,191.673 Z M535.8081,218.354 C533.6851,219.82 531.8411,222.638 531.8411,222.638 C531.5901,224.594 532.7111,227.245 534.6561,230.273 C535.2181,231.148 536.5831,230.945 536.7991,229.93 C537.6541,225.904 536.3861,221.929 535.8081,218.354 Z M394.0741,118.12 C381.4391,137.022 368.9611,155.687 356.2021,174.774 C384.6111,192.435 414.2731,207.664 443.1331,224.713 C454.4351,213.113 465.2851,201.977 476.5511,190.414 C448.5951,165.909 421.4461,142.111 394.0741,118.12 Z M544.2161,206.95 C542.0001,208.618 539.8261,212.225 539.8261,212.225 C539.3981,214.98 543.8991,223.167 545.4441,220.64 C546.7971,216.268 546.1901,212.414 544.2161,206.95 Z M568.3751,186.312 C567.3561,186.59 565.8371,187.04 565.3271,187.661 C565.3271,187.661 565.3171,189.078 565.3271,190.149 C565.4201,199.642 568.3481,207.858 576.0861,214.509 C580.1551,211.317 584.2881,207.628 587.6871,204.657 C588.1741,204.231 588.6341,203.841 588.6341,203.841 C588.8331,203.222 588.6521,202.47 588.5271,201.996 C587.3661,197.608 585.7271,193.349 582.3411,190.089 C578.3941,186.288 573.7951,184.838 568.3751,186.312 Z M553.8411,195.72 C551.2441,197.621 549.9431,199.206 549.5721,200.321 C549.5721,200.321 550.2081,203.518 550.4771,204.354 C551.3231,206.986 551.3661,208.525 553.7191,209.935 C554.5661,210.441 555.6731,209.886 555.7401,208.9 C556.0511,204.362 554.9931,199.804 553.8411,195.72 Z M342.1501,73.157 C306.9601,84.992 273.8031,100.836 238.8651,115.309 C256.2271,126.159 272.8491,135.717 290.5441,144.802 C303.8261,117.796 323.7231,96.066 342.1501,73.157 Z" id="Stroke" fill="#1a1a1a"/></g></g><g id="Body" transform="translate(-101.000000, 239.000000) scale(1.0103092783505154 1)"><g id="Body/Drawings" stroke="none" stroke-width="1" fill="none" fill-rule="evenodd"><path d="M80.9074874,55 L8,246.958048 L18.3355116,256.047728 L28.0192646,260.216544 L25.014775,270.52318 L322.093791,442 L409,252.659351 L386.669782,237.794704 C386.669782,152.249127 363.382027,103.056371 316.806516,90.2164383 C305.283725,87.0398362 276.480995,86.3498887 267.585288,86.3498887 C251.359501,86.3498887 227.669318,97.2589783 196.514739,119.077157 L80.9074874,55 Z" id="Fill" fill="#ffffff"/><path d="M77.9255499,53.8903639 C78.725041,52.0083753 80.2011013,51.6197906 81.9459906,52.3360252 C83.28214,52.884439 84.5323442,53.6486223 85.7975388,54.3578643 C121.427857,74.3225269 157.057177,94.2901863 192.682499,114.266836 C193.617009,114.791208 194.619998,115.271226 195.480959,115.890141 C197.058246,114.712297 198.655476,113.556148 200.273466,112.423706 C217.696375,100.229738 236.406465,90.8597526 257.376116,86.5283818 C261.628409,85.6503203 266.001625,85.3636267 270.317878,84.7922373 C272.826281,84.4605918 274.175422,85.4525316 275.249738,87.8769405 C281.391828,101.732133 291.630311,114.875086 301.226202,127.41868 C300.834452,125.068192 300.791479,117.504276 300.732517,113.304764 C300.643573,106.959546 300.693541,98.2988021 300.732517,91.9555815 C300.767494,86.4854277 301.407087,86.0458975 306.628763,85.757206 C323.170233,84.8441818 336.891499,92.5229751 348.567066,104.24245 C363.762393,119.494149 374.054842,137.630766 379.790191,158.339633 C386.48293,182.499812 389.228183,207.104515 387.797094,232.152745 C387.725139,233.417393 387.790098,234.745973 387.401346,235.914724 C387.375002,235.993843 387.335937,236.075068 387.286495,236.156621 L390.631489,237.9956 C396.199945,241.05533 401.777394,244.099077 407.327861,247.189774 C412.856341,250.268483 412.923299,250.367378 410.395908,255.980379 C401.683454,275.342685 392.941019,294.693004 384.176598,314.033334 C365.375567,355.522992 346.555547,397.003659 327.744522,438.489321 C327.594617,438.819968 327.474693,439.1636 327.321791,439.493248 C324.84137,444.84353 324.414641,445.046313 319.257924,442.108453 C288.339606,424.498274 257.443273,406.849137 226.540945,389.211987 C160.321099,351.419378 94.1012529,313.627768 27.8844048,275.829165 C26.7671161,275.191846 25.662819,274.530553 24.5175481,273.84129 C23.1254343,273.003186 22.484842,271.321982 22.9705329,269.771639 C23.8679616,266.9077 24.73441,264.139658 25.6598209,261.186814 C19.9204745,258.283917 14.5988621,255.613771 9.29623757,252.905665 C4.36237834,250.386357 4.22746422,250.094669 6.15123959,244.965151 C29.670268,182.283143 53.2012887,119.60613 76.7323095,56.9281173 C77.1150658,55.9102052 77.4988215,54.8912942 77.9255499,53.8903639 Z M102.078175,84.3597995 C76.7742828,146.63724 51.7422175,208.245396 26.6032204,270.120267 C125.496268,326.549957 223.966584,382.738905 322.745704,439.103664 C351.092659,376.522548 379.159792,314.559772 407.415805,252.182438 C391.285073,243.316913 375.164335,234.455384 359.042598,225.594854 L360.391764,226.335228 C359.924716,230.269553 358.859743,234.134791 357.73523,237.969528 C357.026762,240.382852 355.365099,242.346415 353.629482,243.099011 C354.01471,243.548455 354.383795,244.008261 354.73554,244.475974 C360.916605,252.697188 366.671941,261.239059 372.595171,269.654065 C373.706463,271.233377 375.201512,273.682759 376.402747,275.398925 C376.605618,275.201136 376.757521,275.024325 376.88444,274.857504 C377.399113,274.175233 377.918782,273.49496 378.506408,272.872625 C379.556739,271.761812 380.653041,270.707939 382.172074,272.180365 C382.926594,272.911583 382.559827,275.498818 381.903245,276.852372 C379.793588,281.211713 377.440087,285.47116 374.878717,289.580768 C374.662854,289.9254 374.300085,290.179129 373.864363,290.387905 C372.37631,291.100144 370.521491,290.082232 370.547474,288.432995 C370.550472,288.215228 370.587449,288.014442 370.671395,287.836632 C371.027169,287.081439 371.712732,285.397239 371.739715,284.777901 C371.739715,284.777901 369.116385,281.764122 367.12965,280.070932 C367.551381,282.927878 368.043068,285.775835 368.378855,288.642771 C368.977474,293.747315 367.579364,298.234519 364.043614,302.033459 C359.047795,307.398725 352.392032,307.641466 347.096403,302.499961 C340.784421,296.369513 339.361327,288.659752 340.99029,280.461514 C342.611258,272.310226 346.015091,264.957085 353.954037,259.840553 C349.763705,254.648103 345.902163,249.364749 340.302727,245.718646 C336.711014,243.380145 334.811223,243.873618 332.754532,247.652579 C328.848019,254.823915 329.563564,262.240988 331.943049,269.673045 C332.236862,270.590065 332.69457,271.461134 333.13529,272.322213 C333.95177,273.920505 334.921153,275.820475 332.669586,276.653584 C331.838116,276.961255 329.860375,275.621687 329.137835,274.543839 C322.50006,264.645418 325.058431,245.774586 333.958766,237.925975 C334.648869,237.317183 335.35391,236.793962 336.071449,236.362435 C335.975849,236.306544 335.883156,236.24445 335.793198,236.178442 C335.642294,236.067561 334.808825,235.083612 334.754859,235.088607 C329.715067,235.567096 326.94583,234.126635 327.487485,228.155017 C327.696352,225.843488 328.26499,223.565922 328.853615,220.228489 C326.186313,222.553005 324.297516,224.373059 322.227833,225.955368 C320.079201,227.599611 317.816641,229.464618 314.848531,227.800396 C312.782846,226.643633 312.265175,223.589896 313.664285,219.832912 C315.986806,213.604568 318.343306,211.383942 322.779482,206.577079 C322.924975,206.419436 323.136363,206.223998 323.396471,206.003054 C292.470777,189.005194 261.540049,172.0046 230.578875,154.987316 L237.376398,158.724278 C236.203199,160.106655 235.162279,161.397858 233.962621,162.518966 C219.10308,176.40113 204.030675,190.060531 189.386996,204.166455 C183.04988,210.271806 177.377206,217.064102 171.445811,223.594865 C180.955785,232.270423 190.837869,240.44818 201.000043,248.24984 C201.146552,247.942956 201.297863,247.641224 201.417538,247.3523 C201.82328,246.375344 202.235018,245.401385 202.754687,244.480369 C212.482494,227.239795 222.218297,210.004216 231.983081,192.78462 C232.873514,191.2123 233.883871,189.692924 234.978174,188.256459 L234.978174,188.256459 L235.008155,188.2185 C236.403267,186.418424 239.231467,188.16256 238.317049,190.24833 C237.978264,191.021504 237.613497,191.809662 237.188767,192.563856 C226.710437,211.195942 216.198129,229.810049 205.698813,248.430148 C205.520926,248.744812 205.404,249.095437 205.220117,249.406105 C204.947933,249.865343 204.684635,250.379605 204.379063,250.821598 C217.267787,260.555733 230.586584,269.713083 244.151932,278.538975 C244.47723,277.83359 244.939341,277.148562 245.340278,276.481069 C254.5744,261.110496 263.824511,245.750912 273.077621,230.392326 C273.729206,229.310482 274.279856,228.101774 275.166291,227.25468 C275.67197,226.772195 276.972142,226.541442 277.534784,226.863098 C278.094427,227.182756 278.541143,228.409445 278.394237,229.101706 C278.1384,230.30442 277.476821,231.45519 276.830232,232.534037 C267.703042,247.757767 258.569856,262.976502 249.37471,278.158276 C248.845047,279.031343 248.169477,279.816504 247.391972,280.689571 L247.42011,280.656017 C249.934416,282.277727 252.456643,283.888786 254.985638,285.490739 C258.820197,287.919144 262.82065,290.085828 266.619232,292.566177 C268.128272,293.551125 270.967464,294.52908 270.967464,294.52908 C272.040781,293.813844 273.432895,293.123582 274.904958,291.997785 C279.915255,288.167984 285.147461,284.596336 290.496086,281.240002 C289.839113,277.848645 289.176591,274.457922 288.503601,271.069952 C287.511233,266.067298 287.697115,261.43425 291.951406,257.726213 C294.024087,255.918145 296.060791,255.434662 298.190435,257.236736 C300.259118,258.988863 302.341792,260.804923 304.04171,262.897686 C312.325437,273.091791 320.582181,283.308871 328.83093,293.530946 L325.958844,289.972743 C327.37194,290.171386 328.781567,290.448156 330.186767,290.819045 C332.983986,291.558255 336.138978,293.22847 336.212931,296.763691 C336.248556,298.487292 335.561278,299.695123 334.518495,300.584533 C338.894968,306.013489 343.272146,311.442146 347.647652,316.870802 C349.469492,319.130387 351.736049,322.148161 353.797737,324.829296 C354.866057,323.587623 355.557616,322.108204 356.318132,320.841558 C356.951729,319.787684 358.446777,319.474019 359.328216,320.332102 C360.085734,321.069315 360.045759,322.156153 359.512099,323.34688 C356.415071,330.255497 353.245089,337.134145 349.935195,343.941869 C349.860243,344.096704 349.743318,344.230561 349.596411,344.349434 C348.430154,345.291427 346.67627,344.614151 346.201572,343.19267 C346.075652,342.816073 345.999701,342.441473 346.018689,342.070869 C346.085646,340.804223 346.915118,339.577534 347.474762,338.179028 C344.713872,334.76828 341.972208,331.381782 339.201131,327.957911 C338.870538,329.545851 337.914738,331.017133 336.13498,332.105919 C340.474218,335.905858 339.334943,339.155385 333.894407,341.175226 C333.216826,341.426743 332.5247,341.652348 331.822404,341.853738 C331.675875,343.527688 330.139867,343.982384 328.73609,344.576091 C323.290201,346.877895 317.687889,348.272156 311.923734,348.794084 L311.616388,349.269575 C311.342563,349.697118 310.63901,350.787952 310.63901,350.787952 C310.63901,350.787952 311.175669,352.439188 311.373543,353.07351 C313.965893,361.395615 317.343742,370.812551 320.04902,379.100693 C320.126971,379.341436 320.816532,378.283566 320.836519,378.244608 C320.876494,378.16769 320.915469,378.089773 320.954444,378.010858 C321.178301,377.557343 321.381172,377.093838 321.60503,376.639324 C322.473477,374.881203 323.356915,373.052157 324.575139,371.501814 C324.784006,371.223112 325.113796,371.032316 325.50055,370.886472 C326.923644,370.350045 328.588584,371.299031 328.624561,372.817408 C328.628559,373.002211 328.600577,373.17103 328.525624,373.314877 C325.236718,379.701051 321.821892,386.02729 318.215188,392.238652 C317.732495,393.068765 315.659814,393.828952 314.871316,393.458348 C312.986516,392.571296 313.814989,390.85513 314.695428,389.541534 C316.036574,387.54367 317.29977,384.66175 317.29977,384.66175 C317.29977,384.66175 316.101533,380.967698 315.213099,378.870939 C311.093656,369.144649 307.815689,359.146215 305.032337,349.007095 C304.796703,349.000436 304.5593,348.992602 304.321632,348.983381 C290.3905,348.442959 277.156924,344.73692 264.127219,340.141831 C260.094085,338.719559 256.112333,337.190347 252.178292,335.562041 C245.579791,344.389874 238.968075,353.208167 232.311672,361.991878 C229.862231,365.225422 229.241626,365.286357 225.525991,363.01978 C217.942818,358.392725 210.428602,353.655787 202.886403,348.960805 C188.573514,340.051327 174.251631,331.153837 159.952733,322.222382 C155.215749,319.263544 155.068842,318.732112 158.108907,314.218936 C162.601048,307.551062 167.125168,300.905165 171.6303,294.246282 L170.995959,295.182399 C165.376838,292.252544 159.789257,289.264106 154.233774,286.224955 C149.445618,283.60547 144.960517,280.674466 140.784124,277.438989 C140.194528,277.264889 139.633434,276.89987 139.114898,276.3582 C138.89684,276.130361 138.714434,275.89996 138.565799,275.667744 C127.497768,266.562622 118.725217,255.209684 112.362428,241.751486 C110.069888,236.901669 108.484897,231.535405 107.603458,226.236068 C107.570325,226.036785 107.538541,225.837837 107.508107,225.639221 C104.535357,227.978927 102.27628,231.017313 100.570934,234.45918 C99.9763129,235.658898 100.363067,237.600822 100.833767,239.024301 C102.801514,244.965951 103.68795,251.028471 103.121311,257.246825 C102.927434,259.378547 102.38378,261.541236 101.616269,263.543096 C100.804786,265.658835 99.2577704,267.219167 96.6874066,267.129263 C94.1310339,267.03836 92.6899513,265.408103 91.9933947,263.237423 C91.3368126,261.192608 90.8761059,259.028921 90.7272007,256.890206 C90.3204596,251.024475 91.1369399,245.253643 93.3545282,239.822448 C94.5867438,236.804673 94.3079213,234.43121 92.5630321,231.725102 C84.5421379,219.285397 72.6607014,219.034665 64.9206285,231.613221 C57.9540632,242.934122 55.8434068,255.161054 60.0697165,268.099227 C60.4814544,269.360878 60.9931286,272.710299 58.3618037,271.934128 C56.8277802,271.481612 55.4146797,268.388917 55.0948833,266.953451 C51.7600062,251.971463 54.1844629,237.994401 63.7673626,225.859371 C72.2359717,215.134833 84.6640603,215.345607 93.5464061,225.825407 C94.7146624,227.203934 95.7550001,228.690345 97.1351216,230.493418 C100.180386,226.152845 103.560597,222.876492 107.029446,220.741648 C106.632364,211.08199 109.620562,202.2376 116.03509,194.108405 C120.718155,188.172785 125.547411,182.382281 130.540375,176.744534 C130.312432,175.298131 130.089364,173.825182 129.841202,172.315796 C125.301092,172.827249 121.197704,173.384654 117.077327,173.713302 C114.938688,173.88412 112.688121,173.996 110.63143,173.520508 C107.49043,172.793286 106.696935,170.59064 108.965491,168.352032 C112.301367,165.06055 116.09795,162.227578 119.763617,159.281726 C120.869913,158.392676 122.195069,157.777334 123.831028,156.787392 C122.53985,149.653017 121.253668,142.556601 119.973483,135.458188 C119.55475,133.141664 118.97312,130.832132 118.826214,128.497627 C118.771249,127.630554 119.546755,126.277999 120.30927,125.918383 C121.043802,125.571754 122.561836,125.895408 123.18344,126.495766 C124.600538,127.866302 125.783785,129.516538 126.874091,131.175765 C130.350877,136.468108 133.742718,141.816392 137.537303,147.717086 C139.324165,146.40349 140.901161,145.330636 142.381219,144.137911 C144.780692,142.202979 146.989286,139.998335 149.539662,138.297154 C150.696925,137.525978 152.68466,137.14938 153.905883,137.614883 C154.738353,137.931544 155.365953,140.057272 155.260021,141.304939 C155.030167,143.991068 154.386577,146.662213 153.701013,149.284411 C153.280431,150.893148 152.841687,152.49798 152.390564,154.111508 L153.043532,153.491814 L153.043532,153.491814 C162.257006,144.802135 171.344025,135.97246 180.9041,127.684719 C154.667969,113.264491 128.398314,98.8259974 102.078175,84.3597995 Z M214.136242,318.746097 C218.732316,331.922016 223.697155,344.829221 229.34556,357.716448 C232.938981,354.240362 241.67609,342.844559 248.066215,333.814064 C238.088123,329.477021 228.41482,324.507561 218.983788,319.039222 C216.965356,318.940397 215.295509,318.846528 214.136242,318.746097 Z M209.169403,318.562294 C197.537808,316.889082 170.193215,317.801107 164.839623,320.140607 C184.696982,332.504393 204.3045,344.713345 223.917015,356.925293 C219.029127,344.210882 214.145236,331.504462 209.169403,318.562294 Z M306.487853,279.091579 C303.38283,279.341312 300.734515,280.326259 298.301064,281.743744 C292.817555,284.939329 287.340042,288.190854 282.141351,291.822972 C272.960196,298.238116 273.052137,298.365979 270.952474,309.557018 C270.717623,310.804685 270.380838,312.03537 270.184962,313.288031 C269.300525,318.943986 268.449067,324.604936 267.481683,330.951153 C276.881699,332.836139 285.532193,334.759083 294.252642,336.272466 C304.269265,338.010608 314.326863,339.609899 324.57334,338.850711 C326.894862,338.678894 331.178136,338.391202 333.894407,337.059625 C334.631937,336.698011 334.153242,335.406392 333.350753,335.227583 C331.214113,334.751092 327.945194,334.599254 326.324226,334.426439 C316.942198,333.423511 307.547179,332.530465 298.157156,331.593467 C296.892961,331.466602 295.548816,331.532532 294.395551,331.098995 C294.013794,330.955149 293.683004,330.676447 293.370203,330.350795 C292.704627,329.656537 292.717619,328.559709 293.398186,327.879436 C293.703991,327.573763 294.026785,327.297059 294.390554,327.097272 C294.940204,326.796593 295.812649,327.035338 296.53219,327.104265 C306.107095,328.021285 315.687996,328.892354 325.252908,329.90627 C327.688357,330.164993 330.870332,330.147013 333.147882,329.12011 C334.732873,328.404875 335.136616,326.175257 333.62258,325.319172 C332.77412,324.839685 330.702439,324.261303 329.847983,324.084492 C324.718248,323.026623 319.53055,322.139571 314.323865,321.586162 C308.732424,320.990798 303.092015,320.860937 297.474591,320.505317 C296.018517,320.412417 294.112731,320.303533 294.536461,318.35062 C294.747327,317.381656 297.079842,316.498599 297.928302,316.316794 C298.8737,316.115009 299.989989,316.429673 300.948379,316.499598 C302.243555,316.594497 303.537731,316.728354 304.830908,316.84423 C307.359298,317.069989 309.887689,317.295748 312.41508,317.520507 C317.471861,317.970027 322.529641,318.411555 327.58942,318.821117 C331.134164,319.10881 335.358475,319.638244 338.977171,318.302671 C340.633117,317.690326 341.024868,315.43174 339.597776,314.393849 C337.662008,312.988351 334.881778,312.804548 332.687175,312.628735 C322.203849,311.790631 311.701534,311.185278 301.203217,310.53797 C300.107914,310.470043 299.008614,310.474038 297.902318,310.490021 C296.02951,310.516992 294.717346,308.464186 295.692725,306.866893 C296.428257,305.661182 297.889327,305.235637 299.47132,304.909985 C307.822004,303.184829 316.182681,301.509619 324.513378,299.69356 C326.283252,299.306973 328.042132,299.19809 330.347664,298.368976 C331.291709,298.029597 331.513634,297.354233 331.421295,296.743347 C330.557075,295.672635 329.694221,294.60209 328.83103,293.531546 L330.316,295.374 L330.215488,295.331431 C325.779169,293.503826 321.633745,293.7612 317.765674,294.117519 C310.737148,294.764828 303.747597,295.869647 296.759046,296.90554 C295.950561,297.025412 295.152069,297.255166 294.397549,297.199226 C292.660655,297.069365 291.949108,294.883701 293.244283,293.719944 C295.451878,291.735066 297.767404,289.671271 300.036959,287.55753 C302.406451,285.351888 305.4715,283.818527 307.530189,280.860688 C308.07884,280.07253 307.445244,279.013662 306.487853,279.091579 Z M254.464355,289.662075 L254.399265,289.86684 C254.071183,290.823727 253.543081,291.771152 253.03528,292.62961 C248.051452,301.052608 242.977682,309.420664 237.93789,317.810697 C237.446121,318.629446 236.970895,319.458234 236.413638,320.424197 C241.874048,322.462039 247.390537,324.37083 252.972919,326.127309 C255.028611,326.773618 257.088299,327.405942 259.638676,328.199095 C262.653757,318.207773 265.562905,308.563081 268.452066,298.984318 C267.81647,298.403938 267.467692,297.979392 267.026973,297.695695 C262.849632,295.002691 258.658213,292.330558 254.464355,289.662075 Z M230.032484,273.993989 L229.994422,274.077013 C229.756948,274.587592 229.471879,275.138004 229.111609,275.633474 C221.523439,286.053338 213.909286,296.453223 206.249162,306.820143 C206.05856,307.078119 205.869511,307.315113 205.681778,307.531512 C208.148342,308.667684 210.622558,309.787321 213.105592,310.886634 C213.342326,310.89733 213.565754,310.940722 213.771274,311.026947 C216.017438,311.968329 218.226339,312.998778 220.425347,314.053338 C223.314792,315.276103 226.217639,316.467094 229.13526,317.62398 L228.910637,317.971525 C232.049638,313.069764 235.246603,308.278884 238.233702,303.360141 C241.242786,298.403439 244.024016,293.307885 246.954151,288.301236 C247.430741,287.486407 247.91985,286.573179 248.556731,285.902329 C242.362492,281.961947 236.175439,278.010546 230.032484,273.993989 Z M174.87021,297.190514 L173.015562,299.929136 C169.775161,304.714614 166.522351,309.518759 163.235644,314.372771 C178.178132,314.002168 192.239181,313.652541 206.317219,313.303914 C206.291525,313.078653 206.24404,312.806963 206.177683,312.495599 C204.540413,311.74342 202.907198,310.983674 201.276828,310.216314 C192.40062,306.038818 183.597721,301.687133 174.87021,297.190514 Z M321.168411,304.78171 L321.081411,304.799904 C318.588844,305.338751 316.167548,305.876523 314.40981,306.386407 C315.941567,306.657125 321.202878,306.77723 322.795914,306.996889 C322.262904,306.267811 321.720301,305.528577 321.168411,304.78171 Z M207.707881,258.763947 L207.51911,259.0276 C207.086496,259.610532 206.614796,260.168603 206.140432,260.716018 C196.986259,271.284722 187.843079,281.864415 178.624947,292.377179 C178.215025,292.844779 177.747631,293.262179 177.279468,293.635727 C184.581724,297.37093 191.917446,301.031094 199.315438,304.548001 C199.45623,304.03704 199.68036,303.492147 199.988148,302.913319 C200.582769,301.796512 201.325297,300.75063 202.076818,299.728722 C208.743574,290.659415 215.415327,281.592106 222.125056,272.553766 C222.747002,271.716138 223.403893,270.833524 224.167799,270.12358 C222.447893,268.984351 220.733076,267.834496 219.023531,266.676847 C215.209805,264.094452 211.437298,261.45725 207.707881,258.763947 Z M355.350148,264.427651 C353.585272,266.137823 351.960306,267.23565 350.977932,268.749032 C346.963487,274.925431 345.727274,281.671222 347.878904,288.791612 C348.421559,290.585694 349.500872,292.383772 350.79205,293.747315 C352.934686,296.007899 355.585998,298.317431 358.902887,297.268552 C362.466618,296.142755 362.732449,292.457693 362.661494,289.436922 C362.460622,280.776178 359.941226,272.710798 355.350148,264.427651 Z M307.387253,286.958023 L307.177807,287.13112 C305.310662,288.65755 303.249914,290.322268 301.487036,291.934852 C304.257273,290.964889 307.927936,290.427463 309.557899,290.237666 L309.973968,290.188224 C309.101643,289.08976 308.237347,288.010414 307.387253,286.958023 Z M186.504769,242.447624 L186.385925,242.596333 C185.727863,243.432074 184.904678,244.530787 183.86741,245.364325 C178.913564,249.34507 173.818807,253.150004 168.826984,257.083799 C161.551616,262.816672 154.324216,268.609481 147.064838,274.360335 C146.610327,274.72035 146.151019,275.07589 145.6857,275.423439 L145.585983,275.497528 C148.559391,277.702649 151.684643,279.766596 154.959312,281.690801 C160.269232,284.811706 165.73221,287.679643 171.208374,290.510266 L171.242647,290.423268 L171.242647,290.423268 C171.86525,288.954837 172.90259,287.611273 173.957918,286.387581 C182.978176,275.942744 192.044405,265.536865 201.10064,255.123994 C201.315451,254.877315 201.530263,254.628405 201.75175,254.386587 C196.580928,250.520547 191.496793,246.541866 186.504769,242.447624 Z M293.269567,271.25875 C293.695257,273.785316 294.129718,276.305744 294.570917,278.822358 C295.982945,278.100245 297.466132,277.494438 298.968347,276.924835 C296.279712,273.886866 294.230236,271.807804 293.269567,271.25875 Z M168.35903,226.667764 L168.219732,226.760189 C167.642252,227.131985 167.012603,227.441126 166.396631,227.692312 C151.61704,233.714875 136.817461,239.685494 122.019881,245.662107 C121.262223,245.968341 120.499487,246.271192 119.726163,246.536336 C125.082892,255.822973 131.76968,263.899393 139.727241,270.798993 C140.276426,270.239092 140.883782,269.727408 141.497382,269.243803 C153.759576,259.571141 166.026767,249.905471 178.322939,240.275763 C179.30069,239.510334 180.372085,238.774858 181.507936,238.282645 C177.047169,234.509075 172.662747,230.637565 168.35903,226.667764 Z M97.3759683,243.03002 C94.7526382,249.468139 94.2079849,255.021204 95.741009,259.363563 C96.1977183,260.660177 98.1164969,260.527319 98.4063124,259.182756 C99.531596,253.950348 98.9069936,248.844805 97.3759683,243.03002 Z M81.3933424,57.1488814 C57.5205392,120.773882 33.7696584,184.072231 9.81990422,247.901014 C11.4888418,248.846004 12.9818914,249.745043 14.5249091,250.547186 C15.9510013,251.288393 17.4300598,251.924713 19.2568969,252.780798 C19.9904299,251.140551 20.7389534,249.752035 21.248629,248.281607 C31.5910453,218.414528 44.4698469,189.574351 56.7690176,160.499425 C64.1243354,143.111009 71.3657257,125.671647 78.9528959,108.384123 C82.1598544,101.076933 85.5986654,93.8576486 89.6560825,86.9859927 C91.05819,84.6115305 92.6631683,83.3708565 97.1493125,84.3597995 C98.0767222,84.5635817 99.5228016,80.5169066 101.130778,79.1703458 C103.013579,80.1153358 105.116241,81.088296 107.142951,82.2011066 C133.982865,96.9493443 160.82178,111.701578 187.661695,126.451813 L184.428533,124.674123 C186.798434,122.68091 189.201047,120.725135 191.645157,118.816793 C191.208672,118.561507 190.775379,118.297269 190.33899,118.05279 C155.972867,98.8003661 121.61174,79.5399508 87.245617,60.2875269 C85.5167176,59.3195614 83.7538398,58.4125308 81.3933424,57.1488814 Z M243.714113,204.725857 C244.694489,202.89881 245.480988,199.257702 248.437107,201.031805 C250.814593,202.458281 248.418119,204.931637 247.47372,206.732713 C240.246321,220.512985 232.95896,234.261291 225.682592,248.014592 C225.006022,249.292227 224.375424,250.614813 223.525964,251.772576 C223.421031,251.915423 223.298109,252.045284 223.159198,252.168153 C222.062896,253.139115 220.25005,252.789489 219.750368,251.41296 C219.682411,251.227159 219.645435,251.045353 219.649138,250.863547 C219.675416,249.864615 220.352984,248.850699 220.854665,247.899715 C228.446832,233.494111 236.014015,219.074522 243.714113,204.725857 Z M260.515318,211.90898 C261.031989,211.44148 262.341156,211.261672 262.901799,211.60031 C263.437458,211.923964 263.808222,213.166636 263.644326,213.862892 C263.362505,215.061611 262.675943,216.189406 262.043345,217.279241 C255.947226,227.773026 249.855104,238.270806 243.684032,248.721637 C243.112396,249.689602 242.39985,250.574656 241.577373,251.566596 C240.584006,252.766314 238.633247,252.619471 237.945685,251.221964 C237.860739,251.04815 237.805774,250.879331 237.786786,250.706515 C237.706837,249.957316 238.445367,249.090243 238.895081,248.317069 C245.370958,237.204945 251.852832,226.095818 258.352695,214.997679 C258.989289,213.909842 259.604897,212.730103 260.515318,211.90898 Z M355.323765,216.557412 C354.82908,218.282569 352.510556,229.351738 349.965176,233.268552 C349.314591,234.267485 350.707704,241.058227 352.972262,240.047307 C353.146151,239.969391 353.277068,239.808563 353.360015,239.637745 C357.273524,231.578359 357.487388,226.667607 357.312499,220.874798 C357.271525,219.522244 356.649921,216.848102 355.323765,216.557412 Z M128.804577,185.27508 L128.044859,186.181218 C124.397056,190.56336 120.888001,195.067552 117.48017,199.667464 C112.702212,206.118569 111.012288,213.2939 111.390047,221.188463 C111.689856,227.454766 113.150926,233.375438 115.807235,239.027397 C115.958279,239.34883 116.110733,239.668982 116.264596,239.987854 L116.254551,239.993165 C117.196951,239.459735 118.232292,239.085136 119.24065,238.675573 C133.185773,233.007631 147.069934,227.178861 161.128985,221.809599 C161.614247,221.624375 162.029681,221.405728 162.390596,221.161922 C161.165888,220.036703 160.114795,218.797142 160.082051,216.98096 C160.421835,216.425553 160.552752,216.059944 160.804591,215.821199 L162.931,213.802 L160.007463,211.3808 C150.180593,203.241999 140.420001,195.160081 130.675371,187.058739 C130.017472,186.511745 129.382175,185.915417 128.804577,185.27508 Z M346.824176,234.751967 C346.2557,235.08578 345.618285,235.488951 344.944159,235.885674 C345.383108,236.101688 345.823771,236.354484 346.264932,236.645343 C346.583402,236.855363 346.900196,237.071462 347.214749,237.293365 C347.098267,236.529234 346.994973,235.475435 346.824176,234.751967 Z M348.347206,209.777658 L348.377187,210.935421 C347.498746,217.741147 343.761126,223.138379 339.965542,228.484665 C339.173046,229.60247 337.679997,232.052851 337.819908,233.169658 C337.936808,234.104453 338.729151,234.737008 339.692106,235.007155 C340.436503,234.893088 341.188901,234.879665 341.947258,234.971789 C342.288231,234.859734 342.600791,234.691658 342.860699,234.466272 C347.914482,230.084955 352.391632,216.302685 351.677087,213.269926 C351.35729,211.653653 349.875234,210.919438 348.347206,209.777658 Z M360.405807,218.635234 L360.414525,218.701121 L360.414525,218.701121 C360.534728,219.640911 360.603924,220.575625 360.628897,221.505749 C370.628444,227.002476 380.630842,232.498601 390.631489,237.9956 L383.460021,234.054238 C383.430293,233.194661 383.480905,232.320215 383.530809,231.46448 C383.778449,227.223233 383.901501,222.997535 383.900804,218.787513 C383.57205,218.849034 383.220368,218.884076 382.847644,218.88952 C375.369519,218.996883 367.886953,218.784603 360.405807,218.635234 Z M336.391817,214.203928 C334.415075,218.105758 331.133164,224.525896 331.129163,228.977139 C331.126169,231.891024 333.028958,231.948963 333.830447,230.967012 C338.917209,224.735672 346.410439,211.087259 344.06893,209.43902 C340.449234,206.513147 337.662008,211.693611 336.391817,214.203928 Z M332.55426,205.242505 C326.96182,206.397271 320.479946,214.86622 316.979174,221.514115 C316.268627,222.864671 317.640753,224.238203 319.112816,223.433064 C325.294881,220.053676 330.844348,214.048094 333.332764,207.654927 C334.170231,205.506223 333.839442,205.526202 332.55426,205.242505 Z M381.568998,187.378357 L381.51513,187.408968 C380.663385,187.85704 379.566048,188.051521 378.593952,188.202217 C371.626387,189.280065 364.643832,190.270007 357.667273,191.288918 C357.636293,191.03419 357.605313,190.778464 357.574333,190.523736 C354.673179,190.523736 351.764031,190.654596 348.872872,190.480782 C348.679258,190.469128 348.488922,190.449935 348.302983,190.422889 C348.138315,193.549593 347.972356,196.677071 347.826538,199.805316 C347.742591,201.606391 347.814545,203.415458 347.814545,204.458343 C351.410998,207.146181 354.823795,209.228764 357.609802,211.8997 C357.744517,211.890255 357.881442,211.88618 358.01845,211.888003 C360.902614,211.92796 363.780782,212.325535 366.662947,212.551294 C368.106028,212.664173 369.551109,212.731102 371.839652,212.870952 C374.79577,212.725108 378.590354,212.563281 382.380941,212.340519 C382.869901,212.311676 383.348219,212.302351 383.801673,212.334744 C383.548442,203.953103 382.801682,195.633774 381.568998,187.378357 Z M151.489134,161.742408 L150.116919,163.053441 C149.158872,163.961336 148.197253,164.865386 147.231232,165.764697 C142.429147,170.235212 137.888414,174.921361 133.553043,179.783855 C134.407711,180.404731 135.206614,181.120486 136.020968,181.797362 C146.695207,190.663202 157.362462,199.53864 168.339313,208.669165 L181.7,195.99 L180.743341,194.904244 C171.789452,184.746086 162.339901,174.024108 152.891229,163.302129 C152.429209,162.778178 151.94911,162.268191 151.489134,161.742408 Z M270.31388,88.8548953 C264.048869,89.9057722 257.861807,90.9446619 251.841639,91.9555815 C251.266006,99.3536747 250.794306,106.025544 250.219672,112.688423 C249.074401,125.988209 244.277455,138.045323 237.472786,149.37921 C236.79926,150.501886 235.760868,151.42851 234.775473,152.342958 C266.193299,169.608641 297.610741,186.873724 329.027205,204.139784 L327.307215,203.193264 C328.280865,202.578637 329.171206,202.082554 329.707072,201.899079 C334.924751,200.112987 337.819908,201.899079 337.819908,205.878825 C338.865242,204.904866 340.443238,204.599193 343.109541,205.380358 C343.338395,202.530404 343.722151,199.694435 343.766123,196.852472 C343.959999,184.34484 344.299783,171.830215 344.045944,159.328576 C343.963997,155.277905 342.722787,151.06341 341.17877,147.260474 C334.220199,130.115797 326.91485,113.110971 319.868335,96.0012576 C319.461594,95.0143124 319.113816,94.1941889 318.434248,93.1662875 C317.457313,91.3648584 315.856387,90.6048875 314.226926,90.6048875 C312.796837,90.6368533 312.137257,90.5988939 310.052584,90.5988939 C309.396002,96.3097904 308.761406,104.005703 308.082838,109.695622 C307.265358,116.542304 306.438884,123.388987 305.555447,130.227678 C305.323594,132.015767 305.089743,134.365256 302.899137,134.397222 C301.40209,134.420197 299.39137,133.329363 298.44997,132.09668 C289.85644,120.842708 281.298888,109.54778 274.788032,96.8873106 C273.47187,94.3280459 271.989814,91.8536904 270.31388,88.8548953 Z M174.113818,139.782968 L172.848919,140.983943 C167.462949,146.13369 162.174671,151.38903 156.834781,156.588972 C158.083824,157.848344 159.251291,159.198219 160.42943,160.530092 C168.967995,170.186771 177.48957,179.858435 186.024137,189.518111 C186.38979,189.931961 186.764186,190.337643 187.18396,190.785693 L203.483659,175.31661 C198.119281,169.082222 192.918876,163.10382 187.846977,157.016847 C183.433786,151.718509 179.218469,146.255348 174.957182,140.832144 C174.694334,140.4972 174.395113,140.144767 174.113818,139.782968 Z M372.775922,150.726117 L372.737895,150.746732 C372.356047,150.934033 371.940194,151.081036 371.509862,151.190374 C363.816759,153.145285 356.078685,154.921386 348.3566,156.764417 C348.247255,156.740294 348.138225,156.716818 348.029714,156.693661 C349.017935,162.974276 349.233919,169.37459 348.994794,175.881885 C348.895469,178.578726 348.772273,181.274768 348.638335,183.970474 C348.816116,183.955821 348.997997,183.945505 349.181675,183.938774 C355.695529,183.702027 362.216378,183.536204 368.71624,183.082689 C371.771295,182.868917 374.787375,182.069771 377.816447,181.516363 C378.704881,181.353537 379.750216,180.720214 380.424787,181.006907 L380.526765,181.050182 C378.800337,171.465315 376.415971,161.967649 373.384268,152.558811 C373.186476,151.945036 372.983683,151.334142 372.775922,150.726117 Z M124.689106,136.313525 L124.64451,136.320266 C125.689844,142.961169 127.154912,151.262297 128.266204,158.194888 C128.400119,159.031993 127.968394,159.852117 127.207878,160.230712 C122.402937,162.620158 118.035717,165.077532 114.07224,169.777509 C119.195978,169.107225 123.251397,168.64372 127.285828,168.030376 C131.951765,167.320522 133.376351,168.064939 134.320412,172.540869 C138.147379,168.347747 142.07013,164.242948 146.095945,160.229352 C147.539108,154.846011 149.035511,149.142774 150.491057,143.825245 C147.68984,145.338628 145.860005,146.946909 144.069145,148.41534 C137.426373,153.86052 136.074234,153.648746 131.52513,146.535349 C129.653321,143.608477 127.719552,140.718566 125.813765,137.812671 C125.813765,137.812671 124.874363,136.185411 124.64451,136.320266 Z M200.514474,117.503508 L200.483062,117.526887 C193.198911,122.79587 186.250297,128.567154 179.551024,134.698628 C180.333351,135.501171 180.989328,136.511866 181.716879,137.384829 C190.776112,148.264201 199.831348,159.146571 208.867596,170.043924 L208.943563,170.137436 C215.992496,163.445991 223.040061,156.753118 230.085027,150.057561 C230.006471,149.979903 229.928671,149.899463 229.850938,149.816342 C220.440928,139.758092 211.130855,129.60794 201.851762,119.428819 C201.340871,118.868169 200.883481,118.206474 200.514474,117.503508 Z M357.724773,121.717806 L357.660693,121.780791 C357.407311,122.015311 357.099135,122.212045 356.737865,122.360386 C350.768639,124.80965 344.724744,127.081128 338.410158,129.51137 C339.629466,132.273086 340.888291,135.015663 342.200119,137.732657 C344.12818,141.726312 345.573762,145.777899 346.629245,149.883852 C346.908273,149.806333 347.195057,149.738314 347.483156,149.674993 C354.887443,148.048732 362.29173,146.420472 369.709008,144.849151 C369.976964,144.792541 370.247373,144.741027 370.516486,144.700224 C367.165171,136.500347 362.871418,128.849623 357.724773,121.717806 Z M247.045692,93.6128103 C242.912324,95.0952259 239.657396,96.1490996 236.487413,97.4167448 C225.82165,101.684226 215.889748,107.081661 206.521963,113.329188 L206.306926,113.095588 C215.9297,123.530453 225.518078,133.998717 235.076933,144.492587 L235.011353,144.59732 C244.716175,129.283687 246.95575,112.207937 247.045692,93.6128103 Z M323.482035,94.0103854 C324.311507,96.1471017 325.858522,99.6143961 326.751953,101.724141 C329.745501,108.794931 332.597133,115.934749 335.59161,123.005842 L335.531365,123.026674 C341.512557,120.932912 347.481757,118.806185 353.479939,116.763368 C353.603459,116.721289 353.727208,116.681914 353.85089,116.645715 C351.641316,113.905865 349.299308,111.247218 346.831171,108.66772 C340.733053,102.294532 334.981715,97.886243 326.640025,94.9843445 C325.637663,94.562795 324.263537,94.3670042 323.482035,94.0103854 Z" id="Stroke" fill="#1a1a1a"/></g></g><g id="Face" transform="translate(195.000000, 236.000000) scale(1 1)" fill="#1a1a1a"><g id="Face/Smile" stroke="none" stroke-width="1" fill="none" fill-rule="evenodd"><path d="M10.7342,34.9264 C11.8452,35.8024 12.5262,37.2014 13.5402,38.2294 C17.7942,42.5384 21.1822,42.7674 26.0072,39.1414 C27.1662,38.2714 28.1702,37.0864 29.4552,36.5374 C30.1972,36.2194 31.5272,36.6604 32.2562,37.2074 C32.5912,37.4604 32.4232,39.0534 31.9612,39.5854 C28.7942,43.2414 25.1052,46.0714 21.1732,46.1834 C15.3042,46.0914 8.5252,41.4164 7.2362,37.1764 C6.9842,36.3474 7.3132,34.7714 7.9042,34.4104 C8.5382,34.0234 10.0302,34.3724 10.7342,34.9264 Z M27.8689,11.0959 C29.0199,15.6489 30.1869,20.2019 31.1709,24.7919 C32.1349,29.2889 30.7839,30.8189 26.1689,30.5989 C24.1899,30.5049 22.1919,30.2639 20.2709,29.8059 C19.6339,29.6529 18.7869,28.5999 18.8029,27.9779 C18.8209,27.3179 19.6549,26.2549 20.2969,26.1139 C22.1859,25.6999 24.1569,25.6549 26.6209,25.4139 C25.5299,20.7949 24.4219,16.4859 23.5269,12.1319 C23.1629,10.3629 21.7969,7.7539 24.5809,7.0949 C27.2989,6.4499 27.4029,9.2489 27.8689,11.0959 Z M11.1513452,18.6999638 C12.2687564,22.2848354 10.454079,26.3141157 7.36997876,27.0954776 C5.20707056,27.6428606 3.38352499,26.4024463 2.60377214,23.8536388 C1.54995691,20.4107375 3.28559823,16.0368947 6.0719023,15.1130989 C8.20745996,14.4050301 10.2647214,15.8582679 11.1513452,18.6999638 Z M41.5476,15.3579 C44.0486,15.3779 46.2016,18.1629 46.0496,21.1819 C45.8886,24.4019 43.6766,26.8499 41.1566,26.5989 C38.7616,26.3589 37.3146,24.1149 37.4456,20.8429 C37.5776,17.5539 39.2336,15.3389 41.5476,15.3579 Z" id="Stroke" fill="#1a1a1a"/></g></g></g></svg>