<svg viewBox="177.8387096774194 240.25 288.38709677419365 408.42499999999984" xmlns="http://www.w3.org/2000/svg" overflow="visible" xmlns:xlink="http://www.w3.org/1999/xlink" width="288.38709677419365px" height="408.42499999999984px"><g id="Master/Character/Bust" stroke="none" stroke-width="1" fill="none" fill-rule="evenodd"><g id="Frame" transform="translate(71.500000, 134.500000) scale(1 1)"><g id="Frame/None" stroke="none" stroke-width="1" fill="none" fill-rule="evenodd" fill-opacity="0"/></g><g id="Head" transform="translate(195.000000, 205.000000) scale(1 1)"><g id="Head/Short 3" stroke="none" stroke-width="1" fill="none" fill-rule="evenodd"><path d="M130.015457,89.9811438 L135.217606,89.674459 C151.343697,88.7648343 160.098462,88.8348054 161.4819,89.8843724 C178.493794,112.889823 184.576641,135.584991 179.730441,157.969875 C178.691027,162.770993 162.771337,165.740978 131.971372,166.87983 L131.033485,166.91378 L134.421225,198.824328 C134.797213,200.299697 135,201.870483 135,203.5 C135,212.060414 129.403559,219 122.5,219 C115.596441,219 110,212.060414 110,203.5 C110,202.639206 110.056588,201.7948 110.165402,200.972191 L108.533842,200.972567 L108.458037,198.171625 C107.621355,168.402615 106.148629,152.1788 104.03986,149.50018 C79.854786,149.50018 79.854786,137.358858 81.1798049,130.747277 C82.5048238,124.135696 96.4172316,121.438301 98.77036,121.438301 C95.5674734,89.947545 103.703073,91.4942844 130.015457,89.9811438 Z" id="Path" fill="#FFF"/><path d="M145.5791,42.0653 C149.9661,44.6393 152.9611,48.4453 154.7101,53.2253 C155.0761,54.2263 155.4421,55.2273 156.0171,56.7993 C157.1021,55.8343 157.6611,55.3763 158.1761,54.8733 C163.4951,49.6823 169.6841,48.0713 176.6631,50.7883 C183.7791,53.5573 187.4651,59.2163 188.4711,66.5363 C189.8101,76.2813 184.9961,85.0183 176.2041,89.4283 C173.520568,90.7743967 170.744363,91.8720664 167.891752,92.6186749 L167.704741,92.3455145 C180.693741,111.101515 187.398741,131.430515 182.901741,154.475515 C182.693741,155.541515 182.307741,156.573515 182.099741,157.639515 C181.392741,161.257515 179.300741,163.215515 175.617741,163.992515 C163.528741,166.539515 151.400741,168.675515 139.002741,168.824515 C137.207741,168.845515 135.411741,168.827515 132.917741,168.827515 C133.880741,172.969515 134.755741,176.566515 135.542741,180.184515 C135.830741,181.504515 138.883144,200.886821 137.713144,201.130821 C135.869144,201.516821 133.811144,201.663821 133.723144,199.281821 C133.624144,196.639821 131.523741,180.843515 130.920741,178.233515 C130.639741,177.014515 127.197741,175.290515 124.913741,172.993515 C123.269741,171.339515 121.911741,169.332515 120.754741,167.297515 C120.230741,166.376515 119.306741,164.076515 119.714741,163.111515 C119.937741,162.580515 122.493741,163.094515 123.426741,163.265515 C132.994741,165.016515 142.588741,164.868515 152.157741,163.543515 C159.336741,162.549515 166.459741,161.154515 173.616741,159.982515 C176.277741,159.546515 177.592741,158.076515 178.180741,155.416515 C180.533741,144.767515 180.179512,134.982781 177.578741,123.676515 C175.099571,112.898884 168.808456,102.258947 162.179588,93.6044579 C161.277536,93.6800851 160.369167,93.7147898 159.4551,93.7073 C148.0221,93.6143 136.5951,93.0043 125.1621,92.7683 C120.4561,92.6713 115.7341,92.8773 111.0351,93.1793 C109.4541,93.2803 107.8801,94.0063 106.3731,94.6193 C99.8741,97.2683 99.2701,98.3903 100.7111,105.3523 C101.7781,110.5063 103.0351,115.6203 104.0391,120.7853 C104.2521,121.8793 104.2521,122.479038 103.22439,123.5163 C101.50516,123.925045 101.630972,124.199588 101.044197,123.959304 C100.942218,124.006541 100.831152,124.039942 100.712841,124.057015 C99.8268407,124.185015 98.9818407,124.299015 98.1388407,124.291015 C94.1318407,124.253015 90.6948407,125.752015 87.5628407,128.066015 C84.4108407,130.397015 82.7568407,133.409015 83.4178407,137.481015 C84.1158407,141.778015 86.1528407,145.101015 90.4668407,146.292015 C93.2248407,147.053015 96.1658407,147.219015 99.0408407,147.473015 C100.992841,147.645015 102.971841,147.505015 105.452841,147.505015 C105.846841,149.741015 106.391841,151.805015 106.549841,153.899015 C107.391841,165.128015 109.589597,186.677083 110.290597,197.916083 C110.403597,199.730083 111.631597,202.613083 108.936597,203.014083 C105.807597,203.481083 106.171597,200.348083 106.015597,198.316083 C105.350596,189.660163 103.758202,173.745432 102.822126,162.744445 L102.9392,162.872 C100.478799,160.199579 96.7589522,156.107215 94.5742,153.199 C94.3647256,152.919349 93.7155643,152.231831 93.196186,151.542624 L93.3438407,151.563015 C84.1658407,150.422015 78.8868407,144.368015 79.0018407,135.420015 C79.0392115,132.452223 79.8658451,129.848323 81.6899889,127.628761 L81.7371,127.7113 C76.6341,118.7503 72.6601,109.4083 74.4261,98.7683 C75.8171,90.3913 80.5121,83.8883 87.7691,79.7653 C93.2451,76.6543 99.2601,74.4473 105.1471,72.1233 C110.2031,70.1283 115.4261,68.5603 120.5591,66.7613 C124.1821,65.4923 126.1451,62.9473 126.4781,59.0733 C126.7111,56.3623 127.1431,53.6683 127.5001,50.9683 C128.7711,41.3463 137.2101,37.1543 145.5791,42.0653 Z" id="Stroke" fill="#000"/></g></g><g id="Body" transform="translate(28.000000, 319.000000) scale(1.0103092783505154 1)"><g id="Body/Phone" stroke="none" stroke-width="1" fill="none" fill-rule="evenodd"><path d="M168.836119,171.320814 C179.129029,139.795217 191.534798,118.125445 206.053428,106.311498 C220.572058,94.4975517 239.12711,88.5641086 261.718585,88.511169 L268.824194,73.8420949 L304.103484,72 L310.450619,88.511169 C350.070567,86.8466891 376.719246,95.7086202 390.396656,115.096962 C404.074066,134.485304 416.686579,174.190932 428.234195,234.213846 L430,260.508052 L421.89773,292.220004 C409.868391,306.740001 399.368033,314 390.396656,314 C381.425279,314 370.554028,305.239379 357.782904,287.718138 L344.863202,290.128737 C288.585393,283.298967 254.44335,276.299612 242.437074,269.130673 C242.437074,269.130673 200.016936,293.982318 187.05282,287.718138 C174.088704,281.453959 164.378238,272.110916 160.068313,257.667183 C157.195029,248.038028 160.117631,219.255905 168.836119,171.320814 Z" id="Fill" fill="#FFF"/><path d="M322.956321,110.540668 C322.243321,110.854668 321.852321,111.502668 321.998321,111.745668 C324.828321,113.853668 327.004321,116.895668 328.512321,118.654668 C330.081321,120.485668 330.583321,118.981668 332.746321,117.988668 C333.836321,117.488668 334.345321,116.769668 334.080321,116.442668 C332.440321,114.419668 329.930321,111.256668 326.738321,110.217668 C325.889321,109.941668 323.772321,110.180668 322.956321,110.540668 M306.598321,118.213668 C306.190321,118.099668 305.753321,118.131668 305.370321,118.310668 C304.761321,118.594668 304.111321,118.870668 303.847321,119.356668 C303.554321,119.894668 303.803321,121.118668 304.266321,121.613668 C307.210321,124.763668 310.239321,127.839668 313.352321,130.822668 C313.614321,131.074668 314.013321,131.181668 314.450321,131.250668 C315.190321,131.367668 315.905321,130.908668 316.129321,130.192668 C316.313321,129.603668 316.450321,129.035668 316.265321,128.605668 C314.523321,124.569668 311.769321,121.276668 308.123321,118.789668 C307.706321,118.504668 307.183321,118.377668 306.598321,118.213668 M326.738321,122.900668 C326.458321,120.358668 320.027321,115.065668 317.805321,113.996668 C316.738321,113.728668 313.619321,112.885668 312.690321,113.477668 C312.115321,113.844668 311.710321,115.593668 312.083321,116.148668 C314.386321,119.584668 318.461321,124.097668 321.128321,127.253668 C321.900321,128.166668 324.916321,129.234668 325.120321,128.028668 C325.679321,124.707668 326.504321,123.457668 326.738321,122.900668 M371.544321,182.171668 C363.643321,187.541668 351.252321,195.160668 344.289321,198.748668 C348.924321,198.164668 359.023321,195.661668 363.394321,194.609668 C364.444321,194.356668 365.454321,193.940668 366.502321,193.677668 C368.572321,193.159668 370.236321,192.140668 370.624321,189.903668 C371.008321,187.690668 371.167321,185.438668 371.544321,182.171668 M324.420321,132.491668 C323.451321,132.137668 322.349321,132.170668 321.054321,131.268668 C321.054321,131.268668 319.983321,134.168668 319.262321,134.623668 C314.685321,137.507668 313.674321,137.149668 309.699321,133.518668 C307.561321,131.566668 305.715321,129.278668 303.484321,127.453668 C301.703321,125.996668 300.820321,124.796668 299.603321,122.900668 C299.603321,122.900668 294.640321,123.845668 294.209321,125.556668 C293.906321,126.760668 293.625321,128.075668 293.795321,129.276668 C295.552321,141.705668 301.879321,151.420668 311.732321,159.555668 C315.153321,150.374668 315.373321,138.650668 324.420321,132.491668 M329.652321,162.134668 C333.109321,159.152668 335.493321,156.948668 338.030321,154.937668 C344.430321,149.865668 350.737321,144.647668 357.424321,139.979668 C359.961321,138.207668 361.972321,137.826668 365.098321,137.462668 C365.761321,137.385668 368.705321,138.107668 369.109321,137.948668 C369.109321,137.948668 369.447321,135.177668 369.111321,133.538668 C368.893321,132.471668 368.856321,131.367668 368.636321,130.301668 C367.071321,122.742668 363.769321,119.847668 356.039321,119.157668 C349.629321,118.585668 343.452321,119.444668 337.229321,121.191668 C332.233321,122.593668 329.719321,125.378668 329.677321,130.373668 C329.592321,140.504668 329.652321,150.637668 329.652321,162.134668 M325.124321,137.546668 C324.866321,137.498668 324.931321,137.510668 324.672321,137.462668 C322.972321,138.190668 321.018321,144.155668 319.872321,147.721668 C318.432321,152.201668 317.405321,156.819668 316.330321,161.409668 C314.334321,169.922668 312.410321,178.458668 306.189321,185.143668 C305.826321,185.533668 304.869321,186.300668 304.757321,186.629668 C304.757321,186.629668 305.831321,187.953668 306.755321,188.716668 C312.492321,193.453668 318.254321,198.159668 323.957321,202.935668 C324.902321,203.727668 327.248321,204.942668 327.248321,204.942668 C327.248321,204.942668 328.649321,204.114668 329.769321,203.395668 C342.140321,195.460668 354.830321,187.997668 366.934321,179.678668 C375.206321,173.992668 378.764321,164.966668 381.886321,155.808668 C382.134321,155.080668 381.280321,154.466668 380.673321,154.938668 C379.869321,155.562668 379.166321,156.263668 378.529321,157.019668 C375.020321,161.185668 371.605321,165.431668 368.112321,169.610668 C365.207321,173.086668 362.275321,176.541668 359.288321,179.946668 C358.327321,181.041668 357.099321,182.188668 355.579321,180.897668 C354.030321,179.580668 355.064321,178.278668 355.981321,177.116668 C361.157321,170.561668 366.345321,164.017668 371.536321,157.474668 C372.890321,155.767668 374.422321,154.177668 375.586321,152.351668 C375.839321,151.955668 376.044321,151.528668 376.223321,151.084668 C376.788321,149.684668 375.495321,148.250668 374.025321,148.598668 C373.433321,148.739668 372.889321,148.941668 372.446321,149.278668 C369.290321,151.680668 366.295321,154.355668 363.553321,157.225668 C359.415321,161.555668 355.554321,166.148668 351.560321,170.617668 C350.835321,171.428668 350.151321,172.371668 349.241321,172.892668 C349.003321,173.028668 348.742321,173.125668 348.467321,173.198668 C347.280321,173.514668 346.106321,172.597668 346.036321,171.372668 C346.011321,170.936668 346.039321,170.522668 346.185321,170.154668 C346.623321,169.047668 347.794321,168.235668 348.630321,167.281668 C353.414321,161.816668 358.239321,156.386668 362.947321,150.856668 C364.348321,149.210668 365.563321,147.358668 366.577321,145.449668 C366.795321,145.039668 366.914321,144.575668 366.991321,144.089668 C367.179321,142.904668 366.323321,141.786668 365.128321,141.662668 C364.414321,141.588668 363.742321,141.589668 363.227321,141.874668 C359.431321,143.975668 355.603321,146.147668 352.221321,148.839668 C345.689321,154.038668 339.511321,159.680668 333.052321,164.975668 C331.353321,166.367668 329.662321,169.112668 327.095321,167.763668 C324.514321,166.407668 325.112321,163.373668 325.118321,160.844668 C325.137321,153.078668 325.121321,145.312668 325.124321,137.546668 M256.679736,275.660168 C289.317736,281.921168 325.095321,283.296668 358.019321,280.663668 C355.774321,276.678668 353.715321,273.321668 351.938321,269.820668 C342.938321,252.084668 337.067321,233.264668 332.832321,213.898668 C332.220321,211.099668 330.777321,208.087668 330.777321,208.087668 C330.777321,208.087668 328.504321,209.119668 325.926321,210.518668 C324.492321,211.297668 323.036321,212.051668 321.684321,212.958668 C320.991321,213.423668 319.894321,214.387668 320.022321,214.807668 C321.230321,218.759668 318.103321,220.475668 315.998321,222.446668 C308.313321,229.641668 300.425321,236.617668 292.651321,243.717668 C291.784321,244.509668 289.864321,246.346668 289.097321,247.215668 C288.131321,248.309668 289.891321,248.656668 290.064321,250.499668 C290.118321,251.069668 288.238321,252.525668 287.941321,252.415668 C286.203321,251.767668 285.065321,251.083668 283.964321,251.741668 C282.447321,252.647668 280.223321,254.971668 278.910321,256.074668 C272.985321,261.049668 267.310321,266.322668 260.750321,272.179668 M167.049321,251.133668 C168.170321,265.065668 172.151321,277.869668 182.147321,288.212668 C183.024321,289.120668 184.898321,291.002668 185.875321,291.661668 C186.851321,292.319668 189.326321,289.594668 190.784321,289.811668 C192.064321,290.003668 192.016321,290.220668 193.143321,291.725668 C193.560321,292.282668 189.573321,295.167668 189.573321,295.167668 C194.227321,298.041668 202.765321,300.430668 208.208321,298.764668 C223.261321,294.155668 236.198321,285.771668 248.317321,276.142668 C259.123321,267.557668 270.906321,257.039668 281.288321,247.934668 C282.027321,247.286668 280.426321,246.110668 280.106321,245.134668 C279.787321,244.157668 280.748321,243.379668 281.518321,242.839668 C283.113321,241.719668 285.258321,244.706668 286.992321,243.068668 C293.200321,237.204668 301.386321,229.962668 307.719321,224.231668 C309.740321,222.402668 311.659321,220.462668 313.662321,218.614668 C315.499321,216.919668 314.989321,215.549668 312.052321,212.057668 C306.639321,205.622668 302.463321,198.240668 299.615321,190.329668 C297.582321,184.681668 296.443321,182.741668 292.977321,184.050668 C286.864321,186.359668 280.642321,188.386668 274.555321,190.761668 C259.786321,196.525668 245.876321,203.977668 232.494321,212.452668 C228.569321,214.937668 227.831321,214.442668 226.927321,209.945668 C224.280321,196.776668 221.498321,183.634668 218.760321,170.482668 C218.649321,169.951668 218.400321,169.447668 218.309321,168.914668 C218.060321,167.462668 217.731321,165.594668 219.660321,165.456668 C220.570321,165.390668 221.874321,166.895668 222.510321,167.978668 C223.223321,169.189668 223.465321,170.709668 223.767321,172.127668 C225.918321,182.249668 228.024321,192.381668 230.163321,202.507668 C230.898321,205.984668 231.048321,206.047668 233.781321,204.326668 C241.005321,199.776668 248.091321,194.991668 255.472321,190.713668 C270.704321,181.882668 286.018321,173.185668 301.456321,164.720668 C307.041321,161.657668 307.229321,162.047668 302.815321,157.305668 C295.836321,149.808668 291.142321,141.157668 289.556321,130.937668 C289.006321,127.395668 288.917321,123.607668 291.637321,121.200668 C293.501321,119.550668 299.077321,118.981668 299.077321,118.981668 C300.051321,115.224668 304.910321,114.032668 307.317321,115.033668 C307.844321,114.286668 308.967321,112.249668 310.852321,111.262668 C312.360321,110.225668 315.476321,110.217668 315.476321,110.217668 C316.777321,110.396668 317.948321,110.511668 318.747321,110.602668 C319.195321,107.603668 321.707321,106.033668 327.507321,107.212668 C329.295321,107.576668 330.850321,108.252668 332.845321,109.426668 C334.373321,110.325668 335.673321,111.718668 336.852321,113.083668 C338.422321,114.899668 340.106321,115.439668 342.578321,115.226668 C347.447321,114.806668 352.368321,114.762668 357.259321,114.882668 C364.911321,115.071668 369.958321,119.103668 371.986321,126.365668 C373.046321,130.157668 373.330321,134.207668 373.600321,138.165668 C373.684321,139.400668 373.663321,141.257668 373.094321,142.500668 C373.094321,142.500668 374.443321,142.028668 375.873321,141.690668 C377.854321,141.222668 380.234321,141.520668 380.975321,143.759668 C381.593321,145.626668 381.030321,149.725668 381.030321,149.725668 C384.204321,148.740668 386.197321,149.928668 386.667321,150.655668 C387.448321,151.865668 387.749321,153.245668 387.572321,154.575668 C387.103321,158.074668 385.810321,157.680668 383.474321,165.204668 C382.373321,168.751668 380.283321,171.851668 377.810321,174.622668 C374.336321,178.513668 376.664321,187.140668 376.664321,187.140668 C381.161321,191.621668 388.019321,197.610668 391.813321,202.657668 C398.465321,211.508668 404.502321,220.821668 410.779321,229.954668 C411.289321,230.697668 411.900321,231.505668 412.015321,232.345668 C412.118321,233.101668 411.836321,234.296668 411.299321,234.647668 C410.733321,235.017668 409.379321,234.934668 408.873321,234.483668 C407.814321,233.540668 407.055321,232.247668 406.227321,231.060668 C399.884321,221.976668 393.726321,212.755668 387.144321,203.848668 C384.250321,199.934668 380.525321,196.629668 377.126321,193.097668 C376.221321,192.157668 375.086321,191.203668 374.234321,193.208668 C372.942321,196.251668 370.218321,197.306668 367.370321,198.012668 C361.207321,199.539668 355.028321,201.012668 348.813321,202.309668 C345.624321,202.974668 342.329321,203.111668 339.113321,203.669668 C337.360321,203.974668 334.980321,204.942668 334.980321,204.942668 C334.980321,204.942668 335.289321,207.380668 336.026321,209.426668 C341.893321,225.717668 349.553321,241.175668 358.160321,256.149668 C365.138321,268.291668 372.552321,280.233668 382.856321,289.912668 C386.505321,293.338668 390.911321,296.053668 395.253321,298.614668 C398.238321,300.374668 401.739321,300.876668 405.272321,299.812668 C412.319321,297.690668 417.736321,293.089668 422.609321,287.925668 C425.313321,285.060668 429.908321,281.556668 430.686321,277.456668 C430.866321,276.510668 427.948321,275.481668 427.768321,274.336668 C427.723321,274.048668 428.330321,272.726668 428.573321,272.624668 C429.240321,272.346668 432.204321,273.610668 432.204321,273.610668 C433.498321,270.510668 433.188321,268.811668 433.579321,266.478668 C436.721321,247.693668 435.966321,229.211668 429.120321,211.200668 C425.894321,202.716668 423.009321,194.103668 419.765321,185.626668 C418.952321,183.502668 417.848321,180.529668 417.118321,179.561668 C416.598321,178.871668 414.505321,179.661668 413.627321,179.093668 C413.450321,178.978668 413.424321,178.081668 413.627321,176.922668 C413.767321,176.118668 415.190321,175.848668 415.415321,174.963668 C414.814321,172.565668 413.670321,170.276668 412.623321,168.099668 C405.378321,153.044668 398.209321,137.943668 390.461321,123.146668 C387.205321,116.926668 382.736321,111.311668 378.544321,105.621668 C376.847321,103.317668 374.460321,101.507668 372.313321,99.553668 C370.722321,98.105668 369.114321,97.226668 367.267321,99.458668 C367.030321,99.746668 366.623321,99.892668 366.159321,99.992668 C365.230321,100.191668 364.331321,99.556668 364.157321,98.623668 C364.053321,98.062668 365.669321,96.455668 365.518321,95.908668 C365.279321,95.051668 363.651321,94.858668 363.651321,94.858668 C362.848321,94.208668 360.755321,93.667668 359.718321,93.337668 C343.748321,88.255668 327.468321,86.388668 310.788321,88.615668 C307.366321,89.072668 303.925321,89.372668 300.499321,89.803668 C298.444321,90.061668 297.901321,89.272668 296.524321,87.423668 C295.637321,86.230668 294.939321,84.910668 294.350321,83.545668 C293.773321,82.209668 293.029321,81.134668 292.195321,79.567668 C289.995321,75.436668 289.937321,75.485668 285.463321,76.170668 C276.670321,77.517668 267.888321,78.949668 259.070321,80.107668 C256.643321,80.425668 255.651321,81.458668 255.080321,83.686668 C254.359321,86.491668 253.206321,89.183668 252.352321,91.958668 C251.470321,94.820668 249.663321,96.487668 246.739321,97.253668 C242.704321,98.311668 238.741321,99.641668 234.739321,100.828668 C221.102321,104.873668 208.794321,111.200668 198.935321,121.708668 C197.717321,123.007668 195.171321,124.633668 194.503321,126.302668 C194.249321,126.937668 196.453321,127.423668 196.541321,128.276668 C196.593321,128.772668 195.185321,131.443668 194.694321,131.523668 C193.138321,131.779668 191.358321,130.536668 190.520321,131.503668 C189.517321,132.661668 188.830321,134.123668 187.983321,135.395668 C183.528321,142.089668 180.336321,149.386668 177.755321,156.997668 C171.885321,174.303668 170.008321,192.326668 168.098321,210.329668 C167.217321,218.634668 166.900321,226.998668 166.285321,235.968668 C166.511321,240.613668 166.627321,245.885668 167.049321,251.133668 Z M163.500321,212.379668 C163.576321,211.155668 163.584321,209.281668 163.584321,209.281668 C163.181321,208.863668 162.055321,209.191668 160.501321,208.288668 C159.178648,207.518668 159.345321,206.805668 159.187321,205.929668 C159.095321,205.422668 159.753321,204.462668 160.305321,204.207668 C161.760321,203.536668 164.246321,204.211668 164.246321,204.211668 C165.326321,201.684668 165.302321,195.398668 165.716321,192.093668 C167.392321,178.723668 169.831321,165.497668 174.627321,152.886668 C177.130321,146.306668 182.521321,136.679668 185.588321,130.313668 C186.009321,129.439668 183.187321,129.427668 183.486321,127.066668 C183.698321,125.393668 184.597321,124.321668 185.142321,124.073668 C185.843321,123.754668 189.301321,125.202668 189.982321,124.710668 C191.534321,123.588668 191.867321,122.230668 193.345321,121.024668 C194.794321,119.648668 195.749321,118.817668 195.968321,117.769668 C196.119321,117.046668 194.768321,116.087668 194.439321,115.094668 C193.526321,112.334668 195.773321,111.628668 197.898321,113.293668 C198.390321,113.679668 199.915321,114.135668 199.915321,114.135668 C201.126321,113.374668 201.072321,113.737668 201.954321,112.912668 C213.887321,101.738668 228.828321,96.623668 244.044321,92.160668 C247.235321,91.224668 248.818321,89.569668 249.717321,86.387668 C250.495321,83.631668 250.697321,80.142668 252.849321,78.055668 C254.663321,76.295668 257.277321,75.829668 259.693321,75.565668 C268.171321,74.747668 276.576321,73.154668 285.000321,71.813668 C292.160321,70.673668 292.384321,70.735668 295.761321,76.862668 C296.024321,77.339668 296.303321,77.808668 296.557321,78.290668 C300.489321,85.766668 300.476321,85.684668 308.744321,84.474668 C309.763321,84.324668 311.788321,84.178668 312.464321,83.696668 C313.140321,83.215668 312.206321,79.802668 313.049321,79.365668 C315.972321,77.849668 315.516321,78.847668 317.674321,82.877668 C318.017321,83.517668 321.749321,83.259668 322.650321,83.341668 C331.139321,84.118668 337.936321,84.241668 346.347321,85.510668 C352.397321,86.422668 358.284321,88.520668 364.181321,90.299668 C365.781321,90.782668 367.268321,91.597668 368.880321,91.853668 C369.847321,92.006668 371.286321,89.926668 372.465321,90.109668 C373.007321,90.192668 374.384321,90.950668 374.500321,91.708668 C374.110321,92.819668 372.576321,93.983668 372.576321,93.983668 C373.219321,95.042668 376.843321,97.304668 377.644321,98.262668 C381.597321,102.990668 385.620321,107.666668 389.396321,112.533668 C390.032321,113.353668 391.569321,115.565668 392.233321,116.207668 C393.108321,117.053668 394.613321,115.974668 396.200321,116.207668 C396.200321,116.207668 398.429321,116.002668 396.258321,119.298668 C395.841321,119.931668 394.542321,120.503668 394.916321,121.282668 C398.219321,128.155668 402.894321,137.669668 406.211321,144.536668 C410.317321,153.035668 414.314321,161.585668 418.400321,170.094668 C419.013321,171.371668 419.277321,173.752668 420.354321,174.367668 C420.903321,174.680668 422.096321,174.228668 422.526321,174.452668 C423.792321,175.110668 424.404321,175.521668 423.377321,177.220668 C423.228321,177.467668 421.645321,177.773668 421.461321,178.071668 C421.461321,178.071668 423.222321,182.117668 423.754321,183.632668 C427.842321,195.274668 432.263321,206.809668 436.012321,218.558668 C441.041321,234.319668 440.326321,250.451668 438.064321,266.600668 C437.706321,269.153668 436.726321,274.839668 436.726321,274.839668 C437.043321,275.709668 438.592321,275.922668 439.453321,276.753668 C440.847321,278.099668 439.520321,280.130668 437.456321,279.532668 C436.533321,279.264668 434.926321,279.666668 434.926321,279.666668 C434.926321,279.666668 433.968321,280.871668 433.348321,281.836668 C428.559321,289.301668 422.161321,295.153668 414.914321,300.142668 C406.322321,306.056668 397.416321,306.302668 388.997321,300.334668 C383.572321,296.490668 378.749321,291.712668 374.050321,286.963668 C372.657321,285.555668 370.280321,284.003668 370.280321,284.003668 C369.469321,283.829668 368.157321,284.130668 367.096321,284.255668 C349.176321,286.360668 331.680864,287.62546 313.722864,285.91046 C295.992864,284.21746 267.268401,284.186359 249.852401,280.462359 C248.320401,280.135359 243.668177,284.367927 243.668177,284.367927 C243.668177,284.367927 236.237878,289.374889 234.863551,290.28163 C229.149655,294.051494 227.713225,295.020267 212.872321,301.730668 C209.196947,303.39251 209.238321,303.019668 205.121321,303.333668 C201.053321,303.644668 192.836321,302.740668 189.400321,300.317668 C189.173321,300.157668 187.505321,298.655668 187.022321,298.610668 C185.939321,298.510668 184.413321,299.606668 183.784321,299.412668 C182.457321,299.002668 182.224321,298.848668 181.221321,298.037668 C179.690321,296.800668 183.415321,295.922668 181.986321,294.466668 C170.689321,282.970668 163.692321,266.700668 162.664321,251.007668 C162.332321,245.945668 162.612321,240.843668 162.612321,235.760668 C162.378321,235.756668 162.145321,235.752668 161.912321,235.748668 C162.449321,227.958668 163.018321,220.171668 163.500321,212.379668 Z M309.004721,97.600268 C308.854721,98.276268 308.854721,98.886268 308.687721,98.935268 C305.801721,99.791268 302.901721,100.611268 299.966721,101.265268 C299.851721,101.290268 298.856721,99.393268 299.121721,98.735268 C300.031721,96.476268 305.766721,94.897268 307.828721,96.198268 C308.374721,96.542268 308.703721,97.228268 309.004721,97.600268 M214.559321,247.848268 C214.784321,248.501268 214.837321,249.200268 214.713321,249.879268 C214.585321,250.582268 214.476321,251.194268 214.141321,251.636268 C213.683321,252.242268 212.735321,252.704268 211.968321,252.762268 C211.535321,252.795268 210.788321,251.961268 210.604321,251.384268 C210.067321,249.697268 209.566321,247.958268 209.407321,246.207268 C209.330321,245.354268 209.873321,243.852268 210.447321,243.680268 C211.215321,243.449268 212.679321,243.952268 213.141321,244.624268 C213.806321,245.592268 214.184321,246.757268 214.559321,247.848268 M378.480221,245.334068 C378.637221,244.230068 378.657221,244.052068 378.688221,243.876068 C379.239221,240.741068 381.070221,238.367068 382.671221,239.079068 C385.771221,240.456068 383.467221,242.626068 383.101221,244.490068 C383.032221,244.840068 382.975221,245.192068 382.901221,245.540068 C382.580221,247.053068 381.865221,248.599068 380.159221,247.886068 C379.198221,247.485068 378.769221,245.811068 378.480221,245.334068 M252.229821,157.941568 C253.050821,158.731568 253.149821,160.107568 252.300821,160.867568 C252.233821,160.927568 252.162821,160.979568 252.086821,161.022568 C250.999821,161.635568 249.809821,162.173568 248.596821,162.425568 C248.496821,162.446568 248.396821,162.463568 248.294821,162.478568 C246.490821,162.731568 245.050821,160.754568 246.042821,159.226568 C246.142821,159.073568 246.259821,158.945568 246.399821,158.853568 C247.778821,157.938568 249.675821,157.661568 251.393821,157.477568 C251.647821,157.450568 251.925821,157.649568 252.229821,157.941568 M246.363521,262.790168 C244.379521,262.543168 240.801521,258.296168 241.155521,256.756168 C241.315521,256.062168 242.191521,255.132168 242.854521,255.028168 C245.206521,254.661168 248.595521,259.461168 247.615521,261.695168 C247.380521,262.230168 246.651521,262.550168 246.363521,262.790168 M419.366521,199.214968 C417.452521,201.434968 415.797521,203.425968 414.000521,205.279968 C413.881521,205.401968 412.054521,204.403968 412.095521,204.053968 C412.271521,202.565968 412.489521,200.819968 413.387521,199.752968 C414.280521,198.688968 415.968521,198.220968 417.390521,197.727968 C417.722521,197.612968 418.384521,198.448968 419.366521,199.214968 M212.236621,283.917068 C212.395621,283.619068 212.530621,283.031068 212.900621,282.728068 C214.766621,281.193068 216.274621,282.566068 217.714621,283.531068 C219.134621,284.483068 220.071621,285.793068 219.252621,287.639068 C219.127621,287.920068 218.776621,288.178068 218.471621,288.289068 C216.933621,288.848068 212.326621,285.746068 212.236621,283.917068 M194.184821,258.739868 C194.179821,260.660868 192.464821,261.658868 191.164821,260.564868 C190.134821,259.696868 189.291821,258.400868 188.822821,257.125868 C188.267821,255.616868 188.006821,253.585868 190.088821,253.135868 C190.830821,252.976868 192.159821,254.524868 192.875821,255.537868 C193.572821,256.524868 193.829821,257.822868 194.184821,258.739868 M361.146321,229.704168 C359.524321,229.518168 358.319321,229.659168 357.416321,229.202168 C357.092321,229.038168 356.800321,228.810168 356.525321,228.550168 C355.482321,227.563168 355.771321,225.711168 357.133321,225.258168 C357.228321,225.226168 357.323321,225.204168 357.420321,225.192168 C358.787321,225.027168 360.338321,225.185168 361.591321,225.722168 C362.326321,226.037168 363.091321,227.409168 362.991321,228.197168 C362.906321,228.862168 361.592321,229.370168 361.146321,229.704168 M375.566721,222.949368 C375.197721,222.309368 375.101721,221.548368 375.304721,220.837368 C375.601721,219.799368 375.790721,218.995368 376.259721,218.421368 C376.504721,218.121368 376.844721,217.897368 377.220721,217.704368 C378.101721,217.253368 379.174721,217.661368 379.569721,218.569368 C379.771721,219.032368 379.948721,219.501368 380.053721,219.986368 C380.192721,220.621368 379.770721,221.365368 379.677721,222.069368 C379.474721,223.606368 378.922721,225.224368 377.172721,224.732368 C376.503721,224.544368 376.012721,223.722368 375.566721,222.949368 M212.668721,203.769168 L212.434721,204.066168 C211.587721,205.136168 210.047721,205.278168 209.034721,204.399168 C208.815721,204.209168 208.597721,204.018168 208.381721,203.825168 C208.273721,203.728168 208.291721,203.487168 208.260721,203.311168 C207.968721,201.654168 206.504721,199.941168 208.386721,198.388168 C208.737721,198.098168 209.695721,197.924168 209.854721,198.120168 C210.829721,199.316168 211.712721,200.586168 212.719721,202.009168 C213.094721,202.540168 213.072721,203.259168 212.668721,203.769168 M257.113521,164.784768 C257.876521,165.487768 257.866521,166.701768 257.088521,167.388768 C255.621521,168.683768 254.337521,169.819768 252.947521,170.806768 C252.714521,170.971768 251.001521,169.891768 250.878521,169.221768 C250.461521,166.946768 253.615521,163.726768 255.909521,164.049768 C256.314521,164.106768 256.686521,164.391768 257.113521,164.784768 M254.510521,114.226168 C256.567521,114.104168 259.973521,117.700168 259.602521,119.334168 C259.448521,120.008168 258.576521,120.872168 257.905521,121.003168 C256.322521,121.310168 253.239521,118.351168 253.297521,116.522168 C253.325521,115.671168 254.161521,114.847168 254.510521,114.226168 M217.656521,250.005968 C217.791521,248.115968 217.621521,247.274968 217.945521,246.722968 C218.419521,245.913968 219.245521,244.769968 219.923521,244.768968 C220.655521,244.768968 221.634521,245.793968 222.046521,246.604968 C222.406521,247.311968 222.389521,248.452968 222.073521,249.206968 C221.925521,249.561968 221.752521,249.906968 221.564521,250.244968 C220.809521,251.602968 218.899521,251.722968 217.988521,250.463968 L217.656521,250.005968 Z M392.990021,181.301868 C393.508021,181.008868 394.123021,180.922868 394.703021,181.058868 C395.983021,181.358868 396.904021,181.481868 397.545021,181.970868 C398.270021,182.525868 399.002021,183.748868 398.870021,184.532868 C398.767021,185.145868 397.392021,185.788868 396.497021,185.951868 C395.694021,186.097868 394.767021,185.634868 393.909021,185.389868 C392.567021,185.006868 390.652021,184.799868 391.191021,182.904868 C391.387021,182.215868 392.255021,181.718868 392.990021,181.301868 M246.149221,121.211568 C247.447221,120.373568 249.143221,120.501568 250.305221,121.520568 C251.135221,122.248568 251.789221,122.903568 251.859221,123.616568 C252.046221,125.515568 250.023221,125.379568 248.576221,125.122568 C246.939221,124.831568 244.423221,125.421568 244.574221,122.804568 C244.605221,122.273568 245.271221,121.779568 246.149221,121.211568 M218.908521,149.606568 L218.672521,149.887568 C217.690521,151.055568 215.853521,150.997568 214.976521,149.748568 C214.812521,149.514568 214.663521,149.273568 214.535521,149.022568 C214.176521,148.316568 214.145521,147.156568 214.488521,146.456568 C214.882521,145.654568 215.771521,144.862568 216.608521,144.611568 C217.020521,144.488568 218.012521,145.489568 218.356521,146.174568 C218.732521,146.922568 218.663521,147.894568 218.908521,149.606568 M195.170721,204.269168 C195.747721,205.217168 195.672721,206.426168 194.975721,207.291168 C194.306721,208.121168 193.764721,208.781168 193.197721,208.804168 C191.060721,208.890168 190.847721,206.941168 190.797721,205.267168 C190.747721,203.608168 190.841721,201.423168 192.941721,201.702168 C193.727721,201.807168 194.374721,202.960168 195.170721,204.269168 M400.692221,161.358968 L400.692221,161.358968 C399.735221,162.152968 398.301221,161.974968 397.576221,160.964968 C397.040221,160.218968 396.558221,159.456968 396.308221,158.625968 C396.186221,158.215968 396.586221,157.650968 397.066221,157.060968 C397.587221,156.419968 398.560221,156.394968 399.105221,157.016968 L400.876221,159.039968 C401.478221,159.726968 401.395221,160.775968 400.692221,161.358968 M193.944621,166.588468 C193.781621,168.143468 191.944621,168.902468 190.590621,168.122468 C189.796621,167.665468 189.161621,167.257468 188.686621,166.710468 C188.003621,165.922468 187.396621,164.273468 187.775621,163.519468 C188.646621,161.787468 190.231621,162.589468 191.392621,163.462468 C192.366621,164.194468 193.460621,165.061468 193.891621,166.117468 C193.948621,166.257468 193.962621,166.414468 193.944621,166.588468 M390.835721,250.099268 C390.971721,251.229268 390.615721,252.391268 389.740721,253.119268 C389.486721,253.330268 389.231721,253.469268 388.981721,253.457268 C386.611721,253.353268 386.266721,251.193268 386.424721,249.481268 C386.528721,248.353268 387.810721,246.395268 388.498721,246.423268 C390.816721,246.518268 390.610721,248.237268 390.835721,250.099268 M424.166321,242.182768 C424.668321,242.712768 424.656321,243.548768 424.142321,244.065768 C423.470321,244.741768 422.888321,245.338768 422.185321,245.568768 C420.937321,245.975768 419.467321,245.836768 418.125321,245.671768 C417.943321,245.648768 417.658321,243.490768 417.911321,243.372768 C419.617321,242.575768 421.435321,241.975768 423.270321,241.533768 C423.482321,241.482768 423.776321,241.771768 424.166321,242.182768 M416.275621,275.321868 C415.875621,275.675868 414.892621,276.773868 414.723621,276.660868 C413.477621,275.823868 412.308621,274.871868 411.142621,273.915868 C410.511621,273.398868 410.420621,272.467868 410.935621,271.834868 C411.252621,271.446868 411.580621,271.125868 411.950621,271.065868 C413.938621,270.741868 416.274621,273.001868 416.275621,275.321868 M388.086721,280.047468 C387.299721,280.700468 386.591721,281.288468 385.910721,281.852468 C385.307721,282.353468 384.410721,282.249468 383.927721,281.632468 C383.484721,281.068468 383.111721,280.545468 383.242721,280.331468 C384.103721,278.926468 385.369721,277.738468 386.649721,276.666468 C386.736721,276.593468 387.321721,277.116468 388.119721,277.818468 C388.794721,278.412468 388.778721,279.473468 388.086721,280.047468 M277.338221,221.315568 C276.498221,222.449568 274.732221,222.502568 273.955221,221.323568 C273.858221,221.176568 273.790221,221.031568 273.754221,220.878568 C273.326221,219.033568 275.479221,216.353568 277.445221,216.421568 C278.235221,216.449568 279.697221,217.929568 279.657221,217.992568 C278.962221,219.091568 278.201221,220.150568 277.338221,221.315568 M286.138021,209.644668 C286.825021,208.411668 288.628021,208.435668 289.294021,209.679668 C289.703021,210.445668 289.993021,211.102668 290.061021,211.782668 C290.137021,212.534668 288.752021,214.151668 288.075021,214.124668 C285.982021,214.040668 285.723021,212.119668 285.843021,210.501668 C285.863021,210.222668 285.968021,209.949668 286.138021,209.644668 M321.488121,255.919068 C322.239121,256.979068 322.301121,258.408068 321.579121,259.488068 C321.405121,259.747068 321.228121,259.931068 321.012121,260.009068 C320.376121,260.239068 319.146121,259.920068 318.708121,259.396068 C317.461121,257.907068 316.362121,256.254068 315.470121,254.529068 C315.156121,253.921068 315.362121,252.404068 315.772121,252.202068 C316.550121,251.820068 318.074121,251.680068 318.535121,252.161068 C319.626121,253.298068 320.551121,254.596068 321.488121,255.919068" id="Stroke" fill="#000" transform="translate(299.603367, 187.969670) rotate(7.000000) translate(-299.603367, -187.969670)"/></g></g><g id="Face" transform="translate(324.000000, 316.000000) scale(1 1)" fill="#000"><g id="Face/Smile" stroke="none" stroke-width="1" fill="none" fill-rule="evenodd"><path d="M10.7342,34.9264 C11.8452,35.8024 12.5262,37.2014 13.5402,38.2294 C17.7942,42.5384 21.1822,42.7674 26.0072,39.1414 C27.1662,38.2714 28.1702,37.0864 29.4552,36.5374 C30.1972,36.2194 31.5272,36.6604 32.2562,37.2074 C32.5912,37.4604 32.4232,39.0534 31.9612,39.5854 C28.7942,43.2414 25.1052,46.0714 21.1732,46.1834 C15.3042,46.0914 8.5252,41.4164 7.2362,37.1764 C6.9842,36.3474 7.3132,34.7714 7.9042,34.4104 C8.5382,34.0234 10.0302,34.3724 10.7342,34.9264 Z M27.8689,11.0959 C29.0199,15.6489 30.1869,20.2019 31.1709,24.7919 C32.1349,29.2889 30.7839,30.8189 26.1689,30.5989 C24.1899,30.5049 22.1919,30.2639 20.2709,29.8059 C19.6339,29.6529 18.7869,28.5999 18.8029,27.9779 C18.8209,27.3179 19.6549,26.2549 20.2969,26.1139 C22.1859,25.6999 24.1569,25.6549 26.6209,25.4139 C25.5299,20.7949 24.4219,16.4859 23.5269,12.1319 C23.1629,10.3629 21.7969,7.7539 24.5809,7.0949 C27.2989,6.4499 27.4029,9.2489 27.8689,11.0959 Z M11.1513452,18.6999638 C12.2687564,22.2848354 10.454079,26.3141157 7.36997876,27.0954776 C5.20707056,27.6428606 3.38352499,26.4024463 2.60377214,23.8536388 C1.54995691,20.4107375 3.28559823,16.0368947 6.0719023,15.1130989 C8.20745996,14.4050301 10.2647214,15.8582679 11.1513452,18.6999638 Z M41.5476,15.3579 C44.0486,15.3779 46.2016,18.1629 46.0496,21.1819 C45.8886,24.4019 43.6766,26.8499 41.1566,26.5989 C38.7616,26.3589 37.3146,24.1149 37.4456,20.8429 C37.5776,17.5539 39.2336,15.3389 41.5476,15.3579 Z" id="Stroke" fill="#000"/></g></g></g></svg>