<svg width="269" height="64" viewBox="0 0 269 64" fill="none" xmlns="http://www.w3.org/2000/svg">
<path d="M264.616 23.3198C263.994 23.3198 263.419 23.211 262.891 22.9933C262.393 22.7757 261.943 22.4804 261.538 22.1073C261.134 21.7031 260.823 21.2523 260.606 20.7548C260.388 20.2263 260.279 19.6822 260.279 19.1226C260.279 17.9412 260.699 16.9618 261.538 16.1846C262.378 15.3762 263.404 14.972 264.616 14.972C265.207 14.972 265.767 15.0809 266.295 15.2985C266.824 15.5161 267.29 15.8115 267.694 16.1846C268.098 16.5577 268.409 16.9929 268.627 17.4904C268.876 17.9878 269 18.5319 269 19.1226C269 19.6822 268.876 20.2263 268.627 20.7548C268.409 21.2523 268.098 21.7031 267.694 22.1073C267.29 22.4804 266.824 22.7757 266.295 22.9933C265.767 23.211 265.207 23.3198 264.616 23.3198ZM268.254 25.6049V49.8087H261.025V25.6049H268.254Z" fill="white"/>
<path d="M241.879 23.7862L237.682 36.3778H246.03L241.879 23.7862ZM247.942 42.1606H235.77L233.205 49.8088H226.863L238.102 16.4178H246.683L257.875 49.8088H250.46L247.942 42.1606Z" fill="white"/>
<path d="M213.835 32.507H225.587V38.3365H213.835V32.507Z" fill="white"/>
<path d="M196.879 44.6322C198.465 44.6322 199.755 44.057 200.75 42.9067C201.776 41.7563 202.289 40.0153 202.289 37.6835C202.289 35.3517 201.791 33.6262 200.796 32.507C199.801 31.3566 198.511 30.7814 196.926 30.7814C195.34 30.7814 194.019 31.3566 192.962 32.507C191.904 33.6262 191.376 35.3517 191.376 37.6835C191.376 40.0464 191.889 41.803 192.915 42.9533C193.972 44.0726 195.293 44.6322 196.879 44.6322ZM199.117 50.2751C197.314 50.2751 195.775 49.902 194.501 49.1558C193.257 48.4096 192.231 47.3837 191.423 46.0779V58.0632H184.194V25.6049H191.003L191.283 29.3357C192.091 28.0299 193.133 27.004 194.407 26.2578C195.713 25.5116 197.268 25.1385 199.071 25.1385C200.532 25.1385 201.9 25.4028 203.175 25.9314C204.481 26.4288 205.615 27.2061 206.579 28.2631C207.574 29.2891 208.351 30.5949 208.911 32.1805C209.471 33.735 209.75 35.5694 209.75 37.6835C209.75 39.8287 209.471 41.6941 208.911 43.2797C208.351 44.8343 207.574 46.1401 206.579 47.1971C205.615 48.2231 204.481 49.0004 203.175 49.5289C201.9 50.0263 200.548 50.2751 199.117 50.2751Z" fill="white"/>
<path d="M168.613 30.3151C165.846 30.3151 164.152 31.8541 163.53 34.932H172.81C172.841 33.4086 172.484 32.2582 171.738 31.481C171.023 30.7037 169.981 30.3151 168.613 30.3151ZM179.06 48.1298C178.438 48.534 177.692 48.8915 176.821 49.2024C176.075 49.4823 175.142 49.731 174.023 49.9486C172.904 50.1663 171.567 50.2751 170.012 50.2751C165.224 50.2751 161.68 49.1714 159.379 46.9639C157.079 44.7565 155.928 41.6631 155.928 37.6835C155.928 35.7248 156.224 33.9682 156.814 32.4137C157.436 30.8592 158.291 29.5534 159.379 28.4963C160.468 27.4081 161.789 26.5842 163.343 26.0246C164.898 25.4339 166.608 25.1385 168.473 25.1385C170.37 25.1385 172.095 25.4495 173.65 26.0713C175.204 26.662 176.495 27.5636 177.521 28.7761C178.547 29.9886 179.262 31.5121 179.666 33.3464C180.07 35.1496 180.086 37.2793 179.712 39.7355H163.437C163.685 41.3832 164.338 42.6268 165.395 43.4663C166.452 44.2746 168.1 44.6788 170.339 44.6788C171.489 44.6788 172.515 44.6011 173.417 44.4456C174.349 44.2591 175.127 44.0415 175.748 43.7927C176.495 43.5129 177.132 43.202 177.66 42.86L179.06 48.1298Z" fill="white"/>
<path d="M141.607 30.3151C138.84 30.3151 137.145 31.8541 136.523 34.932H145.804C145.835 33.4086 145.477 32.2582 144.731 31.481C144.016 30.7037 142.975 30.3151 141.607 30.3151ZM152.053 48.1298C151.431 48.534 150.685 48.8915 149.814 49.2024C149.068 49.4823 148.136 49.731 147.016 49.9486C145.897 50.1663 144.56 50.2751 143.006 50.2751C138.218 50.2751 134.673 49.1714 132.373 46.9639C130.072 44.7565 128.922 41.6631 128.922 37.6835C128.922 35.7248 129.217 33.9682 129.808 32.4137C130.43 30.8592 131.285 29.5534 132.373 28.4963C133.461 27.4081 134.782 26.5842 136.337 26.0246C137.891 25.4339 139.601 25.1385 141.467 25.1385C143.363 25.1385 145.089 25.4495 146.643 26.0713C148.198 26.662 149.488 27.5636 150.514 28.7761C151.54 29.9886 152.255 31.5121 152.659 33.3464C153.063 35.1496 153.079 37.2793 152.706 39.7355H136.43C136.679 41.3832 137.332 42.6268 138.389 43.4663C139.446 44.2746 141.094 44.6788 143.332 44.6788C144.482 44.6788 145.508 44.6011 146.41 44.4456C147.343 44.2591 148.12 44.0415 148.742 43.7927C149.488 43.5129 150.125 43.202 150.654 42.86L152.053 48.1298Z" fill="white"/>
<path d="M103.77 22.4804V43.7462H107.734C109.257 43.7462 110.656 43.5285 111.931 43.0933C113.206 42.658 114.294 41.9896 115.195 41.0879C116.097 40.1863 116.797 39.0515 117.294 37.6836C117.823 36.2845 118.087 34.6212 118.087 32.6936C118.087 30.7038 117.838 29.056 117.341 27.7502C116.843 26.4133 116.144 25.3562 115.242 24.579C114.372 23.8017 113.33 23.2577 112.118 22.9467C110.936 22.6358 109.63 22.4804 108.2 22.4804H103.77ZM96.3081 16.4178H107.734C110.283 16.4178 112.646 16.6821 114.822 17.2106C117.03 17.7391 118.942 18.6252 120.559 19.8688C122.175 21.1124 123.434 22.7602 124.336 24.8122C125.269 26.8641 125.735 29.398 125.735 32.4137C125.735 35.2741 125.269 37.7924 124.336 39.9687C123.434 42.145 122.16 43.9638 120.512 45.425C118.864 46.8863 116.905 47.99 114.636 48.7362C112.397 49.4512 109.957 49.8088 107.314 49.8088H96.3081V16.4178Z" fill="white"/>
<path fill-rule="evenodd" clip-rule="evenodd" d="M3.23632 34.8352C2.12313 34.9056 1.02942 35.1608 0 35.5903C2.74851 30.3278 9.8571 19.3029 21.5548 18.6739C40.7664 17.6409 42.8266 32.5071 54.0054 31.906C58.7268 31.6521 61.1234 28.0785 60.8799 23.5496C60.4787 16.088 48.6992 7.70457 34.4861 13.9884C34.4861 13.9884 39.6977 0.730538 52.5333 0.0403621C68.8036 -0.836598 81.2936 12.6841 82.2322 30.1407C83.1709 47.5972 70.7532 62.4593 54.4765 63.3345C29.6043 64.6719 18.1318 41.7084 9.3412 36.5125C7.5384 35.3143 5.39819 34.7249 3.23632 34.8352Z" fill="url(#paint0_linear_66_7)"/>
<path fill-rule="evenodd" clip-rule="evenodd" d="M61.3891 1.22153C74.3034 6.36349 79.03 23.8429 71.3341 32.919C65.0217 40.3745 54.8651 36.5003 46.3591 30.1206C48.4883 31.6772 51.0856 32.4591 53.7202 32.3367C58.3997 32.0851 60.7732 28.4708 60.5265 23.8833C60.1204 16.3296 48.4248 7.82842 34.3533 14.1718C34.3533 14.1718 38.3804 3.70067 48.0945 0.788828C49.9529 0.547644 51.8099 0.295341 53.6657 0.0319195C56.2853 0.0291149 58.8918 0.430293 61.3891 1.22153Z" fill="url(#paint1_linear_66_7)"/>
<defs>
<linearGradient id="paint0_linear_66_7" x1="28.5519" y1="8.87469" x2="59.0342" y2="87.5934" gradientUnits="userSpaceOnUse">
<stop stop-color="#5282FE"/>
<stop offset="1" stop-color="#9F70ED"/>
</linearGradient>
<linearGradient id="paint1_linear_66_7" x1="72.537" y1="24.9787" x2="17.082" y2="7.12599" gradientUnits="userSpaceOnUse">
<stop stop-color="#5282FE"/>
<stop offset="1" stop-color="#A070EE"/>
</linearGradient>
</defs>
</svg>
