<svg xmlns="http://www.w3.org/2000/svg" width="544" height="90" fill="none"><g fill="#fff" clip-path="url(#a)"><path fill-rule="evenodd" d="M376.498.322v5.973h-5.666V12.2h-5.613v5.764h-5.771V.322h17.05Z" clip-rule="evenodd"/><path fill-rule="evenodd" d="M376.498.322v5.973h-5.666V12.2h-5.613v5.764h-5.771V.322h17.05Zm0 89.701v-5.972h-5.666v-5.905h-5.613v-5.764h-5.771v17.641h17.05Z" clip-rule="evenodd"/><path fill-rule="evenodd" d="M376.498 90.023v-5.972h-5.666v-5.905h-5.613v-5.764h-5.771v17.641h17.05ZM526.5.15v5.972h5.666v5.905h5.614v5.764h5.771V.149H526.5Z" clip-rule="evenodd"/><path fill-rule="evenodd" d="M526.5.15v5.972h5.666v5.905h5.614v5.764h5.771V.149H526.5Zm0 89.7v-5.972h5.666v-5.905h5.614V72.21h5.771v17.64H526.5Z" clip-rule="evenodd"/><path fill-rule="evenodd" d="M526.5 89.85v-5.972h5.666v-5.905h5.614V72.21h5.771v17.64H526.5Z" clip-rule="evenodd"/><path d="M67.052 90.068V70.124H22.097l-1.906-1.906V56.864l2.265-2.265h32.92v-19.66H22l-1.802-1.801V21.783l1.51-1.51h44.066V.33H-3.595v89.738h70.647Z"/><path d="M67.052 90.068V70.124H22.097l-1.906-1.906V56.864l2.265-2.265h32.92v-19.66H22l-1.802-1.801V21.783l1.51-1.51h44.066V.33H-3.595v89.738h70.647ZM72.592.419h24.212v67.814l1.98 1.98h42.459v19.944H72.585V.42h.007Z"/><path d="M72.592.419h24.212v67.814l1.98 1.98h42.459v19.944H72.585V.42h.007Zm97.819 0h-24.212v89.738h24.212V.42Z"/><path d="M170.411.419h-24.212v89.738h24.212V.42Zm38.055 69.795v-2.631l42.144-48.357V.42h-74.496v19.944h41.658v2.406l-42.084 49.007V90.15h76.058V70.206h-43.288l.008.008Z"/><path d="M208.466 70.214v-2.631l42.144-48.357V.42h-74.496v19.944h41.658v2.406l-42.084 49.007V90.15h76.058V70.206h-43.288l.008.008Z"/><path fill-rule="evenodd" d="M290.475.419h27.06l35.753 89.738h-25.782l-6.114-15.877-1.854-1.502h-32.322l-2.063 1.622-6.07 15.757h-24.354L290.475.42Zm11.788 27.77-8.835 24.623 1.868 1.869h16.206l1.72-1.72-8.888-24.772h-2.071Z" clip-rule="evenodd"/><path fill-rule="evenodd" d="M290.475.419h27.06l35.753 89.738h-25.782l-6.114-15.877-1.854-1.502h-32.322l-2.063 1.622-6.07 15.757h-24.354L290.475.42Zm11.788 27.77-8.835 24.623 1.868 1.869h16.206l1.72-1.72-8.888-24.772h-2.071Zm212.924 61.834h-47.078v-5.868h-5.681v-5.868h-5.688V59.084h18.575v7.4h5.689v5.868H502.3v-5.868h5.681v-5.83H502.3v-5.868h-28.502V48.88h-11.37v-5.867h-5.688V12.096h5.688V6.228h5.681V.322h47.078v5.906h5.689v5.867h5.726V31.3h-18.613v-5.905h-5.681V18.03h-21.297v5.868h-5.688v5.83h5.688v5.868h28.503v5.868h11.369v5.905h5.726v30.932h-5.726v5.868h-5.688v5.868l-.008-.015Z" clip-rule="evenodd"/><path fill-rule="evenodd" d="M515.187 90.023h-47.078v-5.868h-5.681v-5.868h-5.688V59.084h18.575v7.4h5.689v5.868H502.3v-5.868h5.681v-5.83H502.3v-5.868h-28.502V48.88h-11.37v-5.867h-5.688V12.096h5.688V6.228h5.681V.322h47.078v5.906h5.689v5.867h5.726V31.3h-18.613v-5.905h-5.681V18.03h-21.297v5.868h-5.688v5.83h5.688v5.868h28.503v5.868h11.369v5.905h5.726v30.932h-5.726v5.868h-5.688v5.868l-.008-.015Zm-80.733 0h-41.397v-5.868h-5.688v-5.868h-5.689V72.42h-5.688V17.956h5.688v-5.868h5.689V6.22h5.688V.322h41.397v5.906h5.689v5.867h5.726v5.868h5.688v54.471h-5.688v5.868h-5.726v5.868h-5.689v5.868-.015ZM421.56 64.997h5.681V59.09h5.688V31.3h-5.688v-5.905h-5.681v-5.868h-15.578v5.868h-5.726V31.3h-5.689v27.792h5.689v5.906h5.726v5.868h15.578v-5.868Z" clip-rule="evenodd"/><path fill-rule="evenodd" d="M434.454 90.023h-41.397v-5.868h-5.688v-5.868h-5.689V72.42h-5.688V17.956h5.688v-5.868h5.689V6.22h5.688V.322h41.397v5.906h5.689v5.867h5.726v5.868h5.688v54.471h-5.688v5.868h-5.726v5.868h-5.689v5.868-.015ZM421.56 64.997h5.681V59.09h5.688V31.3h-5.688v-5.905h-5.681v-5.868h-15.578v5.868h-5.726V31.3h-5.689v27.792h5.689v5.906h5.726v5.868h15.578v-5.868Z" clip-rule="evenodd"/></g><defs><clipPath id="a"><path fill="#fff" d="M0 0h543.75v90H0z"/></clipPath></defs></svg>